<svg xmlns="http://www.w3.org/2000/svg" width="336" height="336" viewBox="0 0 336 336">
  <g id="Grupo_16" data-name="Grupo 16" transform="translate(-3108 -2610)">
    <g id="Grupo_15" data-name="Grupo 15" transform="translate(37 -15)">
      <path id="Trazado_821" data-name="Trazado 821" d="M259.805,62c7.151,7.906,85.977,96.124,73.481,127.567-9.807,24.593-48.454,43.332-95.341,49.081q-3.966.52-8.036.86c-2.009.181-4.052.332-6.095.468-50.156-7.65-86.624-30.658-86.624-57.862C137.292,150.007,250.918,68.337,259.805,62Z" transform="translate(2999.62 2600.484)" fill="#01a1e4" stroke="#01a1e4" stroke-width="1"/>
      <path id="Trazado_811" data-name="Trazado 811" d="M321.72,166c0,3.44-.12,6.86-.34,10.25h0A268.091,268.091,0,0,0,262.51,193q-3.51,1.45-6.93,3a249.521,249.521,0,0,0-9.39-30.51,272.071,272.071,0,0,1,74.29-18.77h0A151.48,151.48,0,0,1,321.72,166Z" transform="translate(3067.28 2625)" fill="#a3db06"/>
      <path id="Trazado_812" data-name="Trazado 812" d="M321.37,176.25a148.66,148.66,0,0,1-7.27,37.07A259.252,259.252,0,0,0,286.51,223a238.083,238.083,0,0,0-30.43,15.25A115.768,115.768,0,0,0,258.22,216a93.1,93.1,0,0,0-2.64-20q3.42-1.55,6.93-3a268.09,268.09,0,0,1,58.86-16.75Z" transform="translate(3067.28 2625)" fill="#a3db06"/>
      <path id="Trazado_813" data-name="Trazado 813" d="M286.51,223a259.259,259.259,0,0,1,27.59-9.67A150,150,0,0,1,172.21,316a75.54,75.54,0,0,0,28.45-5.66q2.7-1.11,5.31-2.41,2.85-1.43,5.6-3.07c22.24-13.34,38.82-37.58,44.51-66.62A238.091,238.091,0,0,1,286.51,223Z" transform="translate(3067.28 2625)" fill="#a3db06"/>
      <path id="Trazado_814" data-name="Trazado 814" d="M22.22,178.38A149.82,149.82,0,0,0,171.72,316h.49A149.82,149.82,0,0,0,321.37,176.25h0c.22-3.39.34-6.81.34-10.25a151.564,151.564,0,0,0-1.233-19.316l0,.026A150,150,0,0,0,21.72,166q0,6.13.48,12.14C22.21,178.22,22.21,178.3,22.22,178.38ZM171.72,8a160,160,0,1,1-160,160,160,160,0,0,1,160-160Z" transform="translate(3067.28 2625)" fill="gray"/>
      <path id="Trazado_815" data-name="Trazado 815" d="M97.68,165.67A272.229,272.229,0,0,0,23,146.75a150,150,0,0,1,297.53,0,272.069,272.069,0,0,0-74.29,18.77,230.262,230.262,0,0,0-45.73,25.17l-.89-1.26c15.17-10.5,25.26-29.19,25.26-50.5,0-32.85-53.57-118.39-53.57-118.39S117.68,106,117.68,138.89c0,21.05,9.85,39.55,24.7,50.12l-.57.8a229.661,229.661,0,0,0-44.12-24.13h0Z" transform="translate(3067.28 2625)" fill="#0093d8"/>
      <path id="Trazado_816" data-name="Trazado 816" d="M256.08,238.24c-5.69,29-22.27,53.28-44.51,66.62-1.6-33.12-16.09-63.75-39.83-89.15a192.171,192.171,0,0,1,28.72-25.06,230.261,230.261,0,0,1,45.73-25.17A249.524,249.524,0,0,1,255.58,196a93.1,93.1,0,0,1,2.64,20,115.769,115.769,0,0,1-2.14,22.24Z" transform="translate(3067.28 2625)" fill="#4a9727"/>
      <path id="Trazado_817" data-name="Trazado 817" d="M224.83,138.89c0,21.31-10.09,40-25.26,50.5a50.371,50.371,0,0,1-7.2,4.19,35.537,35.537,0,0,1-3.29,1.43,48.62,48.62,0,0,1-17.82,3.37A49.6,49.6,0,0,1,142.38,189c-14.85-10.57-24.7-29.07-24.7-50.12,0-32.85,53.58-118.39,53.58-118.39S224.83,106,224.83,138.89Zm-37.22,39.63c12.87-6.14,21.89-20.35,21.89-36.9,0-22.16-36.14-79.87-36.14-79.87l-.16.26-.15-.38S127.44,112.18,123.59,134s9,42.33,28.62,45.8a32.78,32.78,0,0,0,10.45.16,33,33,0,0,0,22.72-.49A18.9,18.9,0,0,0,187.61,178.52Zm4.76,14.85-3.29,1.5c1.11-.46,2.21-.96,3.29-1.5Z" transform="translate(3067.28 2625)" fill="#01a1e4" stroke="#01a1e4" stroke-width="1"/>
      <path id="Trazado_818" data-name="Trazado 818" d="M168.056,215.71c22.723,25.4,36.593,56,38.124,89.15q-2.623,1.65-5.36,3.07-2.5,1.31-5.083,2.41A69.623,69.623,0,0,1,168.506,316h-.469c-37.559-.13-69.223-30.64-79.11-72.33A119.723,119.723,0,0,1,85.72,216a88.456,88.456,0,0,1,1.761-16.25,239.718,239.718,0,0,1,9.687-34.07h0a217.122,217.122,0,0,1,42.23,24.13A185.5,185.5,0,0,1,168.056,215.71Z" transform="translate(3067.28 2625)" fill="#64b224"/>
      <path id="Trazado_819" data-name="Trazado 819" d="M209.5,141.62c0,16.55-9,30.76-21.89,36.9-1,.46-1.23.57-2.23,1a33,33,0,0,1-22.72.49c.6-.09,1.2-.19,1.79-.31a23.84,23.84,0,0,0,2.36-.57c13.74-3.81,25.09-16.23,28-32.53,3.64-20.88-19.51-79.35-21.61-84.6l.16-.26S209.5,119.46,209.5,141.62Z" transform="translate(3067.28 2625)" fill="#0093d8" stroke="#0093d8" stroke-width="1"/>
      <path id="Trazado_820" data-name="Trazado 820" d="M199.57,189.39l.89,1.26a192.169,192.169,0,0,0-28.72,25.06,191.129,191.129,0,0,0-29.93-25.9l.57-.8a49.6,49.6,0,0,0,28.88,9.37A48.631,48.631,0,0,0,189.088,195a35.534,35.534,0,0,0,3.282-1.427,50.369,50.369,0,0,0,7.2-4.18Z" transform="translate(3067.28 2625)" fill="#0093d8"/>
      <path id="Trazado_822" data-name="Trazado 822" d="M189.08,194.87l3.29-1.5C191.29,193.91,190.19,194.41,189.08,194.87Z" transform="translate(3067.28 2625)" fill="#29abe2"/>
      <path id="Trazado_823" data-name="Trazado 823" d="M173.05,61.63l.15.38c-2.61,4.19-36,58.32-36,79.61,0,18,10.71,33.28,25.44,38.35a32.78,32.78,0,0,1-10.45-.16c-19.65-3.47-32.47-24-28.62-45.8S173.05,61.63,173.05,61.63Z" transform="translate(3067.28 2625)" fill="#01a1e4"/>
      <path id="Trazado_824" data-name="Trazado 824" d="M89.07,243.67c10.33,41.69,43.41,72.2,82.65,72.33A150.07,150.07,0,0,1,30.14,215.69c6.813,2.207,17.706,11.5,24.132,14.168,13.647,5.637,22.454,5.7,34.788,13.822Z" transform="translate(3067.28 2625)" fill="#a3db06"/>
      <path id="Trazado_825" data-name="Trazado 825" d="M97.68,163.38h0a185.615,185.615,0,0,0-10.12,29.945q-6.27-2.637-12.82-5.063a294.447,294.447,0,0,0-52.52-13.72q0-.105,0-.211-.48-5.274-.48-10.67A116.907,116.907,0,0,1,23,146.75a303.055,303.055,0,0,1,74.68,16.63Z" transform="translate(3066.54 2625.665)" fill="#a3db06"/>
      <path id="Trazado_826" data-name="Trazado 826" d="M89.07,234.07h0A248.381,248.381,0,0,0,50,216.44q-9.64-3.412-19.86-6.226a111.466,111.466,0,0,1-7.92-31.823A301.691,301.691,0,0,1,74.74,191.7q6.56,2.32,12.82,4.913a62.2,62.2,0,0,0-1.84,13.852,84.338,84.338,0,0,0,3.35,23.6Z" transform="translate(3066.78 2626.2)" fill="#a3db06"/>
      <circle id="Elipse_1" data-name="Elipse 1" cx="160" cy="160" r="160" transform="translate(3079 2633)" fill="none" stroke="#666" stroke-miterlimit="10" stroke-width="16"/>
      <path id="Trazado_827" data-name="Trazado 827" d="M171.72,316A149.82,149.82,0,0,1,22.22,178.38q0-.12,0-.24" transform="translate(3067.28 2625)" fill="none" stroke="#fff" stroke-miterlimit="10" stroke-width="10"/>
      <path id="Trazado_828" data-name="Trazado 828" d="M321.37,176.25A149.82,149.82,0,0,1,172.21,316" transform="translate(3067.28 2625)" fill="none" stroke="#fff" stroke-miterlimit="10" stroke-width="10"/>
      <path id="Trazado_829" data-name="Trazado 829" d="M320.49,146.71A151.469,151.469,0,0,1,321.72,166c0,3.44-.12,6.86-.34,10.25" transform="translate(3067.28 2625)" fill="none" stroke="#fff" stroke-miterlimit="10" stroke-width="10"/>
      <path id="Trazado_830" data-name="Trazado 830" d="M22.2,178.14q-.48-6-.48-12.14a150,150,0,0,1,298.76-19.29" transform="translate(3067.28 2625)" fill="none" stroke="#fff" stroke-miterlimit="10" stroke-width="10"/>
      <path id="Trazado_831" data-name="Trazado 831" d="M206,307.93q-2.61,1.31-5.31,2.41" transform="translate(3067.28 2625)" fill="none" stroke="#fff" stroke-miterlimit="10" stroke-width="10"/>
      <path id="Trazado_832" data-name="Trazado 832" d="M246,164.91l.21.57A249.523,249.523,0,0,1,255.58,196a93.1,93.1,0,0,1,2.64,20,115.768,115.768,0,0,1-2.14,22.24c-5.69,29-22.27,53.28-44.51,66.62q-2.74,1.65-5.6,3.07" transform="translate(3067.28 2625)" fill="none" stroke="#fff" stroke-miterlimit="10" stroke-width="10"/>
      <path id="Trazado_833" data-name="Trazado 833" d="M99.19,161.62l.08-.2" transform="translate(3067.28 2625)" fill="none" stroke="#fff" stroke-miterlimit="10" stroke-width="10"/>
      <path id="Trazado_834" data-name="Trazado 834" d="M99,162.17l.21-.55" transform="translate(3067.28 2625)" fill="none" stroke="#fff" stroke-miterlimit="10" stroke-width="10"/>
      <path id="Trazado_835" data-name="Trazado 835" d="M98.32,163.93l.66-1.76" transform="translate(3067.28 2625)" fill="none" stroke="#fff" stroke-miterlimit="10" stroke-width="10"/>
      <path id="Trazado_836" data-name="Trazado 836" d="M97.68,165.67c.21-.58.42-1.16.64-1.74" transform="translate(3067.28 2625)" fill="none" stroke="#fff" stroke-miterlimit="10" stroke-width="10"/>
      <path id="Trazado_837" data-name="Trazado 837" d="M200.66,310.34A75.54,75.54,0,0,1,172.21,316h-.49c-39.24-.13-72.32-30.64-82.65-72.33A114.839,114.839,0,0,1,85.72,216a84.819,84.819,0,0,1,1.84-16.25,231.835,231.835,0,0,1,10.12-34.07" transform="translate(3067.28 2625)" fill="none" stroke="#fff" stroke-miterlimit="10" stroke-width="10"/>
      <path id="Trazado_838" data-name="Trazado 838" d="M97.69,165.68h0A272.229,272.229,0,0,0,23,146.75h0" transform="translate(3067.28 2625)" fill="none" stroke="#fff" stroke-miterlimit="10" stroke-width="10"/>
      <path id="Trazado_839" data-name="Trazado 839" d="M211.57,304.86c-1.6-33.12-16.09-63.75-39.83-89.15a191.129,191.129,0,0,0-29.93-25.9,229.661,229.661,0,0,0-44.12-24.13" transform="translate(3067.28 2625)" fill="none" stroke="#fff" stroke-miterlimit="10" stroke-width="10"/>
      <path id="Trazado_840" data-name="Trazado 840" d="M246.19,165.48a272.071,272.071,0,0,1,74.29-18.77h0" transform="translate(3067.28 2625)" fill="none" stroke="#fff" stroke-miterlimit="10" stroke-width="10"/>
      <path id="Trazado_841" data-name="Trazado 841" d="M171.72,215.73h0a192.167,192.167,0,0,1,28.72-25.06,230.26,230.26,0,0,1,45.73-25.17" transform="translate(3067.28 2625)" fill="none" stroke="#fff" stroke-miterlimit="10" stroke-width="10"/>
      <path id="Trazado_842" data-name="Trazado 842" d="M142.38,189a49.6,49.6,0,0,0,28.88,9.37A48.62,48.62,0,0,0,189.08,195a35.532,35.532,0,0,0,3.29-1.43,50.368,50.368,0,0,0,7.2-4.19c15.17-10.5,25.26-29.19,25.26-50.5,0-32.85-53.57-118.39-53.57-118.39S117.68,106,117.68,138.89C117.68,159.94,127.53,178.44,142.38,189Z" transform="translate(3067.28 2625)" fill="none" stroke="#fff" stroke-miterlimit="10" stroke-width="10"/>
      <path id="Trazado_843" data-name="Trazado 843" d="M22.22,178.38,21,178.14" transform="translate(3067.28 2625)" fill="none" stroke="#fff" stroke-miterlimit="10" stroke-width="10"/>
      <path id="Trazado_844" data-name="Trazado 844" d="M74.74,194a266.277,266.277,0,0,0-52.52-15.61" transform="translate(3067.28 2625)" fill="none" stroke="#fff" stroke-miterlimit="10" stroke-width="10"/>
      <path id="Trazado_845" data-name="Trazado 845" d="M87.56,199.75q-6.27-3-12.82-5.76" transform="translate(3067.28 2625)" fill="none" stroke="#fff" stroke-miterlimit="10" stroke-width="10"/>
      <path id="Trazado_846" data-name="Trazado 846" d="M30.14,215.69l-.71-.23" transform="translate(3067.28 2625)" fill="none" stroke="#fff" stroke-miterlimit="10" stroke-width="10"/>
      <path id="Trazado_847" data-name="Trazado 847" d="M50,223q-9.64-4-19.86-7.3" transform="translate(3067.28 2625)" fill="none" stroke="#fff" stroke-miterlimit="10" stroke-width="10"/>
      <path id="Trazado_848" data-name="Trazado 848" d="M89.06,243.67A232.409,232.409,0,0,0,50,223" transform="translate(3067.28 2625)" fill="none" stroke="#fff" stroke-miterlimit="10" stroke-width="10"/>
      <path id="Trazado_849" data-name="Trazado 849" d="M321.37,176.25h0l.79-.13" transform="translate(3067.28 2625)" fill="none" stroke="#fff" stroke-miterlimit="10" stroke-width="10"/>
      <path id="Trazado_850" data-name="Trazado 850" d="M262.51,193a268.087,268.087,0,0,1,58.86-16.74" transform="translate(3067.28 2625)" fill="none" stroke="#fff" stroke-miterlimit="10" stroke-width="10"/>
      <path id="Trazado_851" data-name="Trazado 851" d="M255.58,196q3.42-1.55,6.93-3" transform="translate(3067.28 2625)" fill="none" stroke="#fff" stroke-miterlimit="10" stroke-width="10"/>
      <path id="Trazado_852" data-name="Trazado 852" d="M286.51,223a259.259,259.259,0,0,1,27.59-9.67" transform="translate(3067.28 2625)" fill="none" stroke="#fff" stroke-miterlimit="10" stroke-width="10"/>
      <path id="Trazado_853" data-name="Trazado 853" d="M256.07,238.24h0A238.091,238.091,0,0,1,286.51,223" transform="translate(3067.28 2625)" fill="none" stroke="#fff" stroke-miterlimit="10" stroke-width="10"/>
      <path id="Trazado_854" data-name="Trazado 854" d="M115.31,211.2c12.78,42.63,48.16,77.76,90.87,90.22" transform="translate(3067.28 2625)" fill="none" stroke="#fff" stroke-miterlimit="10" stroke-width="10"/>
      <path id="Trazado_855" data-name="Trazado 855" d="M228.69,206.17a134.85,134.85,0,0,1-30.34,42.46" transform="translate(3067.28 2625)" fill="none" stroke="#fff" stroke-miterlimit="10" stroke-width="10"/>
      <path id="Trazado_856" data-name="Trazado 856" d="M143.5,159.52c4-3.2,1.54-12.18,4.72-23,4.12-14,4.13-14,14.63-54.31,0,0-19.37,35.81-23.63,50.31s-3.75,27,.57,28.24a3.69,3.69,0,0,0,3-.73A6.664,6.664,0,0,0,143.5,159.52Z" transform="translate(3067.28 2625)" fill="#95e0fb"/>
      <path id="Trazado_811-2" data-name="Trazado 811" d="M321.72,166c0,3.44-.12,6.86-.34,10.25h0A268.091,268.091,0,0,0,262.51,193q-3.51,1.45-6.93,3a249.521,249.521,0,0,0-9.39-30.51,272.071,272.071,0,0,1,74.29-18.77h0A151.48,151.48,0,0,1,321.72,166Z" transform="translate(3067.28 2625)" fill="#a3db06"/>
      <path id="Trazado_815-2" data-name="Trazado 815" d="M97.68,165.67A272.229,272.229,0,0,0,23,146.75a150,150,0,0,1,297.53,0,272.069,272.069,0,0,0-74.29,18.77c-3.924,1.611-7.8,3.329-11.9,5.282A229.387,229.387,0,0,0,200.51,190.69l-.89-1.26c15.17-10.5,25.26-29.19,25.26-50.5,0-32.85-53.57-118.39-53.57-118.39S117.68,106,117.68,138.89c0,21.05,9.85,39.55,24.7,50.12l-.57.8a229.661,229.661,0,0,0-44.12-24.13h0Z" transform="translate(3067.28 2625)" fill="#0093d8" stroke="#fff" stroke-width="10"/>
      <path id="Trazado_816-2" data-name="Trazado 816" d="M256.08,238.24c-5.69,29-22.27,53.28-44.51,66.62-1.6-33.12-16.09-63.75-39.83-89.15a192.171,192.171,0,0,1,28.72-25.06,230.261,230.261,0,0,1,45.73-25.17A249.524,249.524,0,0,1,255.58,196a93.1,93.1,0,0,1,2.64,20,115.769,115.769,0,0,1-2.14,22.24Z" transform="translate(3067.28 2625)" fill="#4a9727"/>
      <path id="Trazado_817-2" data-name="Trazado 817" d="M224.83,138.89c0,21.31-10.09,40-25.26,50.5a50.371,50.371,0,0,1-7.2,4.19,35.537,35.537,0,0,1-3.29,1.43,48.62,48.62,0,0,1-17.82,3.37A49.6,49.6,0,0,1,142.38,189c-14.85-10.57-24.7-29.07-24.7-50.12,0-32.85,53.58-118.39,53.58-118.39S224.83,106,224.83,138.89Zm-37.22,39.63c12.87-6.14,21.89-20.35,21.89-36.9,0-22.16-36.14-79.87-36.14-79.87l-.16.26-.15-.38S127.44,112.18,123.59,134s9,42.33,28.62,45.8a32.78,32.78,0,0,0,10.45.16,33,33,0,0,0,22.72-.49A18.9,18.9,0,0,0,187.61,178.52Zm4.76,14.85-3.29,1.5c1.11-.46,2.21-.96,3.29-1.5Z" transform="translate(3067.28 2625)" fill="#01a1e4" stroke="#01a1e4" stroke-width="1"/>
      <path id="Trazado_819-2" data-name="Trazado 819" d="M209.5,141.62c0,16.55-9,30.76-21.89,36.9-1,.46-1.23.57-2.23,1a33,33,0,0,1-22.72.49c.6-.09,1.2-.19,1.79-.31a23.84,23.84,0,0,0,2.36-.57c13.74-3.81,25.09-16.23,28-32.53,3.64-20.88-19.51-79.35-21.61-84.6l.16-.26S209.5,119.46,209.5,141.62Z" transform="translate(3067.28 2625)" fill="#0093d8" stroke="#0093d8" stroke-width="1"/>
      <path id="Trazado_820-2" data-name="Trazado 820" d="M199.57,189.39l.89,1.26a192.169,192.169,0,0,0-28.72,25.06,191.129,191.129,0,0,0-29.93-25.9l.57-.8a49.6,49.6,0,0,0,28.88,9.37A48.631,48.631,0,0,0,189.088,195a35.534,35.534,0,0,0,3.282-1.427,50.369,50.369,0,0,0,7.2-4.18Z" transform="translate(3067.28 2625)" fill="#0093d8"/>
      <path id="Trazado_821-2" data-name="Trazado 821" d="M173.2,62c2.1,5.24,25.25,63.71,21.58,84.55-2.88,16.3-14.23,28.72-28,32.53a23.84,23.84,0,0,1-2.36.57c-.59.12-1.19.22-1.79.31-14.73-5.07-25.44-20.32-25.44-38.35C137.22,120.33,170.59,66.2,173.2,62Z" transform="translate(3067.365 2624.63)" fill="#01a1e4" stroke="#01a1e4" stroke-width="1"/>
      <path id="Trazado_822-2" data-name="Trazado 822" d="M189.08,194.87l3.29-1.5C191.29,193.91,190.19,194.41,189.08,194.87Z" transform="translate(3067.28 2625)" fill="#29abe2"/>
      <path id="Trazado_823-2" data-name="Trazado 823" d="M173.05,61.63l.15.38c-2.61,4.19-36,58.32-36,79.61,0,18,10.71,33.28,25.44,38.35a32.78,32.78,0,0,1-10.45-.16c-19.65-3.47-32.47-24-28.62-45.8S173.05,61.63,173.05,61.63Z" transform="translate(3067.28 2625)" fill="#01a1e4"/>
      <path id="Trazado_827-2" data-name="Trazado 827" d="M171.72,316A149.82,149.82,0,0,1,22.22,178.38q0-.12,0-.24" transform="translate(3067.28 2625)" fill="none" stroke="#fff" stroke-miterlimit="10" stroke-width="10"/>
      <path id="Trazado_828-2" data-name="Trazado 828" d="M321.37,176.25A149.82,149.82,0,0,1,172.21,316" transform="translate(3067.28 2625)" fill="none" stroke="#fff" stroke-miterlimit="10" stroke-width="10"/>
      <path id="Trazado_829-2" data-name="Trazado 829" d="M320.49,146.71A151.469,151.469,0,0,1,321.72,166c0,3.44-.12,6.86-.34,10.25" transform="translate(3067.28 2625)" fill="none" stroke="#fff" stroke-miterlimit="10" stroke-width="10"/>
      <path id="Trazado_830-2" data-name="Trazado 830" d="M22.2,178.14q-.48-6-.48-12.14A150,150,0,0,1,162.055,16.269c78.943-5.1,148.323,52.152,158.474,130.6" transform="translate(3067.28 2625)" fill="none" stroke="#fff" stroke-miterlimit="10" stroke-width="10"/>
      <path id="Trazado_831-2" data-name="Trazado 831" d="M206,307.93q-2.61,1.31-5.31,2.41" transform="translate(3067.28 2625)" fill="none" stroke="#fff" stroke-miterlimit="10" stroke-width="10"/>
      <path id="Trazado_832-2" data-name="Trazado 832" d="M246,164.91l.21.57A249.523,249.523,0,0,1,255.58,196a93.1,93.1,0,0,1,2.64,20,115.768,115.768,0,0,1-2.14,22.24c-5.69,29-22.27,53.28-44.51,66.62q-2.74,1.65-5.6,3.07" transform="translate(3067.28 2625)" fill="none" stroke="#fff" stroke-miterlimit="10" stroke-width="10"/>
      <path id="Trazado_833-2" data-name="Trazado 833" d="M99.19,161.62l.08-.2" transform="translate(3067.28 2625)" fill="none" stroke="#fff" stroke-miterlimit="10" stroke-width="10"/>
      <path id="Trazado_834-2" data-name="Trazado 834" d="M99,162.17l.21-.55" transform="translate(3067.28 2625)" fill="none" stroke="#fff" stroke-miterlimit="10" stroke-width="10"/>
      <path id="Trazado_835-2" data-name="Trazado 835" d="M98.32,163.93l.66-1.76" transform="translate(3067.28 2625)" fill="none" stroke="#fff" stroke-miterlimit="10" stroke-width="10"/>
      <path id="Trazado_836-2" data-name="Trazado 836" d="M97.68,165.67c.21-.58.42-1.16.64-1.74" transform="translate(3067.28 2625)" fill="none" stroke="#fff" stroke-miterlimit="10" stroke-width="10"/>
      <path id="Trazado_837-2" data-name="Trazado 837" d="M200.66,310.34A75.54,75.54,0,0,1,172.21,316h-.49c-39.24-.13-72.32-30.64-82.65-72.33A114.839,114.839,0,0,1,85.72,216a84.819,84.819,0,0,1,1.84-16.25,231.835,231.835,0,0,1,10.12-34.07" transform="translate(3067.28 2625)" fill="none" stroke="#fff" stroke-miterlimit="10" stroke-width="10"/>
      <path id="Trazado_838-2" data-name="Trazado 838" d="M97.69,165.68h0A272.229,272.229,0,0,0,23,146.75h0" transform="translate(3067.28 2625)" fill="none" stroke="#fff" stroke-miterlimit="10" stroke-width="10"/>
      <path id="Trazado_839-2" data-name="Trazado 839" d="M211.57,304.86c-1.6-33.12-16.09-63.75-39.83-89.15a191.129,191.129,0,0,0-29.93-25.9,229.661,229.661,0,0,0-44.12-24.13" transform="translate(3067.28 2625)" fill="none" stroke="#fff" stroke-miterlimit="10" stroke-width="10"/>
      <path id="Trazado_840-2" data-name="Trazado 840" d="M246.19,165.48a272.071,272.071,0,0,1,74.29-18.77h0" transform="translate(3067.28 2625)" fill="none" stroke="#fff" stroke-miterlimit="10" stroke-width="10"/>
      <path id="Trazado_841-2" data-name="Trazado 841" d="M171.72,215.75h0a192.226,192.226,0,0,1,28.728-25.07A230.309,230.309,0,0,1,246.19,165.5" transform="translate(3067.28 2624.98)" fill="none" stroke="#fff" stroke-miterlimit="10" stroke-width="10"/>
      <path id="Trazado_842-2" data-name="Trazado 842" d="M142.38,189a49.6,49.6,0,0,0,28.88,9.37A48.62,48.62,0,0,0,189.08,195a35.532,35.532,0,0,0,3.29-1.43,50.368,50.368,0,0,0,7.2-4.19c15.17-10.5,25.26-29.19,25.26-50.5,0-32.85-53.57-118.39-53.57-118.39S117.68,106,117.68,138.89C117.68,159.94,127.53,178.44,142.38,189Z" transform="translate(3067.28 2625)" fill="none" stroke="#fff" stroke-miterlimit="10" stroke-width="10"/>
      <path id="Trazado_843-2" data-name="Trazado 843" d="M22.22,178.38,21,178.14" transform="translate(3067.28 2625)" fill="none" stroke="#fff" stroke-miterlimit="10" stroke-width="10"/>
      <path id="Trazado_844-2" data-name="Trazado 844" d="M74.74,194a266.277,266.277,0,0,0-52.52-15.61" transform="translate(3067.28 2625)" fill="none" stroke="#fff" stroke-miterlimit="10" stroke-width="10"/>
      <path id="Trazado_845-2" data-name="Trazado 845" d="M87.56,199.75q-6.27-3-12.82-5.76" transform="translate(3067.28 2625)" fill="none" stroke="#fff" stroke-miterlimit="10" stroke-width="10"/>
      <path id="Trazado_846-2" data-name="Trazado 846" d="M30.14,215.69l-.71-.23" transform="translate(3067.28 2625)" fill="none" stroke="#fff" stroke-miterlimit="10" stroke-width="10"/>
      <path id="Trazado_847-2" data-name="Trazado 847" d="M50,223q-9.64-4-19.86-7.3" transform="translate(3067.28 2625)" fill="none" stroke="#fff" stroke-miterlimit="10" stroke-width="10"/>
      <path id="Trazado_848-2" data-name="Trazado 848" d="M89.06,243.67A232.409,232.409,0,0,0,50,223" transform="translate(3067.28 2625)" fill="none" stroke="#fff" stroke-miterlimit="10" stroke-width="10"/>
      <path id="Trazado_849-2" data-name="Trazado 849" d="M321.37,176.25h0l4.447-.13" transform="translate(3067.28 2625)" fill="none" stroke="#fff" stroke-miterlimit="10" stroke-width="10"/>
      <path id="Trazado_850-2" data-name="Trazado 850" d="M262.51,193.37a270.522,270.522,0,0,1,59.727-17.11" transform="translate(3066.413 2625)" fill="none" stroke="#fff" stroke-miterlimit="10" stroke-width="10"/>
      <path id="Trazado_851-2" data-name="Trazado 851" d="M255.58,196q3.42-1.55,6.93-3" transform="translate(3067.28 2625)" fill="none" stroke="#fff" stroke-miterlimit="10" stroke-width="10"/>
      <path id="Trazado_852-2" data-name="Trazado 852" d="M286.51,223a259.259,259.259,0,0,1,27.59-9.67" transform="translate(3067.28 2625)" fill="none" stroke="#fff" stroke-miterlimit="10" stroke-width="10"/>
      <path id="Trazado_853-2" data-name="Trazado 853" d="M256.07,238.24h0A238.091,238.091,0,0,1,286.51,223" transform="translate(3067.28 2625)" fill="none" stroke="#fff" stroke-miterlimit="10" stroke-width="10"/>
      <path id="Trazado_854-2" data-name="Trazado 854" d="M115.31,211.2c12.78,42.63,48.16,77.76,90.87,90.22" transform="translate(3067.28 2625)" fill="none" stroke="#fff" stroke-miterlimit="10" stroke-width="10"/>
      <path id="Trazado_855-2" data-name="Trazado 855" d="M228.69,206.17a134.85,134.85,0,0,1-30.34,42.46" transform="translate(3067.28 2625)" fill="none" stroke="#fff" stroke-miterlimit="10" stroke-width="10"/>
      <path id="Trazado_856-2" data-name="Trazado 856" d="M143.5,159.52c4-3.2,1.54-12.18,4.72-23,4.12-14,4.13-14,14.63-54.31,0,0-19.37,35.81-23.63,50.31s-3.75,27,.57,28.24a3.69,3.69,0,0,0,3-.73A6.664,6.664,0,0,0,143.5,159.52Z" transform="translate(3067.28 2625)" fill="#95e0fb"/>
    </g>
  </g>
</svg>
