<svg xmlns="http://www.w3.org/2000/svg" width="130.853" height="169.137" viewBox="0 0 130.853 169.137">
  <g id="water-drop-svgrepo-com" transform="translate(-45.841)">
    <path id="Trazado_857" data-name="Trazado 857" d="M145.247,38.77c-15.276-20.605-30.77-37.276-30.926-37.441a4.174,4.174,0,0,0-6.108,0c-.155.166-15.65,16.836-30.926,37.441C56.421,66.916,45.841,88.765,45.841,103.708a65.427,65.427,0,1,0,130.853,0C176.694,88.765,166.114,66.916,145.247,38.77ZM117.8,147.964a45.674,45.674,0,0,1-56.167-44.44c0-3.471,1.069-9.76,6.159-20.008a2.364,2.364,0,0,1,4.466,1.329,23.635,23.635,0,0,0-.176,2.759,57,57,0,0,0,45.64,55.739,2.365,2.365,0,0,1,.079,4.62Z" fill="#fff"/>
  </g>
</svg>
