<svg xmlns="http://www.w3.org/2000/svg" viewBox="0 0 289.5 385.2"><defs><style>.cls-1{fill:aqua;stroke-width:0.5px;}.cls-1,.cls-3{stroke:#000;stroke-miterlimit:10;}.cls-2{fill:#fff;}</style></defs><title>Recurso 3</title><g id="Capa_2" data-name="Capa 2"><g id="Capa_2-2" data-name="Capa 2"><rect class="cls-1" x="0.25" y="284.45" width="289" height="100.5"/><path d="M89.14,5.07a30.43,30.43,0,0,0-4.45,2.69,51.49,51.49,0,0,0-4,3.34c-.15.13.07.34.21.21A52.91,52.91,0,0,1,85,7.93a30.66,30.66,0,0,1,4.33-2.6c.17-.09,0-.35-.15-.26Z"/><path d="M94.19,2.16Q91.57,3.51,89,5a.15.15,0,0,0,.15.26q2.55-1.49,5.18-2.85c.17-.08,0-.34-.15-.25Z"/><path d="M128.09,14.08c-7.55-10.36-21.52-18.14-34-11.79-.18.09,0,.35.15.26C106.57-3.72,120.38,4,127.83,14.23c.11.16.37,0,.26-.15Z"/><path d="M85.29,20.13c-6.16,2.13-13,3.76-19.26,1.06-5.44-2.36-9.34-7-13.76-10.81l-.15.25c2.5.74,4.8,2,7.31,2.7a34.33,34.33,0,0,0,7.31.71c4.88.23,9.75-.18,14-2.77A.15.15,0,0,0,80.6,11c-4.35,2.65-9.32,3-14.29,2.71a31.16,31.16,0,0,1-7.22-.8c-2.35-.72-4.53-1.88-6.89-2.58-.13,0-.26.15-.14.25,4.5,3.85,8.47,8.63,14.06,11,6.26,2.62,13.11,1,19.25-1.13.18-.06.1-.35-.08-.29Z"/><path d="M117.55,27.64a30,30,0,0,0-5.7-6.76,25.08,25.08,0,0,0-3.5-2.38,17.42,17.42,0,0,0-4-1.89,18,18,0,0,0-4.75-.33,18,18,0,0,0-4.68.56c-3.32.88-6.56,2.22-9.8,3.36-.18.06-.11.35.08.29,5.93-2.09,12.15-5,18.61-3.7A14.35,14.35,0,0,1,108,18.66a25.25,25.25,0,0,1,3.63,2.43,29.74,29.74,0,0,1,5.65,6.7c.11.16.37,0,.26-.15Z"/><path d="M132.85,57.69l-7-16.25c-2.19-5.07-5.36-9.52-8.47-14.06-.11-.15-.37,0-.26.16,3.11,4.53,6.28,9,8.47,14.05l7,16.25c.08.18.34,0,.26-.15Z"/><path d="M142.54,41.18a87.71,87.71,0,0,0,4.72,10c.09.17.35,0,.26-.15a89.12,89.12,0,0,1-4.7-9.93c-.07-.18-.36-.1-.28.08Z"/><path d="M127.68,14c6.06,8.49,10.1,18.13,14.92,27.34.09.17.35,0,.26-.15C138,31.94,134,22.3,127.94,13.81c-.11-.16-.37,0-.26.15Z"/><path d="M138.61,76.32A69.3,69.3,0,0,1,140.56,87a.15.15,0,0,0,.3,0l0-.24c0-.19-.28-.19-.3,0l0,.24h.3a70.11,70.11,0,0,0-2-10.77c-.06-.18-.35-.11-.29.08Z"/><path d="M132.43,57.57a157.82,157.82,0,0,1,6.23,18.83.15.15,0,0,0,.29-.08,157.82,157.82,0,0,0-6.23-18.83c-.07-.17-.37-.1-.29.08Z"/><path d="M150.29,96.22c-2.66,1.75-6.29,2.13-8.82-.07-.14-.12-.36.09-.21.21,2.63,2.29,6.4,1.94,9.18.12.16-.1,0-.36-.15-.26Z"/><path d="M136.62,152.75c-.13-.39-.28-.77-.43-1.14a.16.16,0,0,0-.19-.11.15.15,0,0,0-.1.19c.15.37.3.75.43,1.14a.15.15,0,0,0,.19.1.14.14,0,0,0,.1-.18Z"/><path d="M151.26,163.83a3.1,3.1,0,0,0-.55,1,4,4,0,0,0-.34,1.17.15.15,0,0,0,.15.15.15.15,0,0,0,.15-.15,3.75,3.75,0,0,1,.31-1.05,3,3,0,0,1,.49-.9c.14-.14-.08-.35-.21-.21Z"/><path d="M171.85,91.58q-3.49,5.25-6.77,10.65a.15.15,0,0,0,.26.15q3.27-5.4,6.77-10.65c.11-.16-.15-.31-.26-.15Z"/><path d="M204.17,65.15c-7.13-.53-13.06,4.27-17.42,9.41-2.47,2.91-4.94,5.76-7.63,8.49a58.77,58.77,0,0,0-7.46,8.75c-.11.16.15.31.26.15a56.41,56.41,0,0,1,7.27-8.54c2.56-2.6,5-5.25,7.3-8.07,4.37-5.31,10.36-10.43,17.68-9.89.19,0,.19-.29,0-.3Z"/><path d="M149.06,122.07v.18a.15.15,0,0,0,0,.1s0,0,.05,0l.06,0a.16.16,0,0,0,.11-.05.18.18,0,0,0,0-.1v-.18a.21.21,0,0,0,0-.11s0,0,0,0h-.06a.15.15,0,0,0-.11,0,.21.21,0,0,0,0,.11Z"/><path d="M165,102.31a123.13,123.13,0,0,1-9,13.23c-3,3.61-6.67,7.84-11.56,8.59-.19,0-.11.32.08.29,4.82-.74,8.45-4.83,11.44-8.36a119.5,119.5,0,0,0,9.34-13.6.15.15,0,1,0-.25-.15Z"/><path d="M140.84,105.82c-.52.87-1.47,1.38-2.14,2.12s-1.47,1.81-2.18,2.72c-.12.15.09.36.21.21.73-.93,1.43-1.91,2.24-2.78A14.23,14.23,0,0,0,141.1,106a.15.15,0,0,0-.26-.15Z"/><path d="M140.86,109.7v8.84a.15.15,0,0,0,.3,0V109.7a.15.15,0,0,0-.3,0Z"/><path d="M149.36,110.34a69.66,69.66,0,0,0-.31,11.73c0,.2.31.2.3,0a69.66,69.66,0,0,1,.31-11.73c0-.19-.27-.19-.3,0Z"/><path d="M149.78,106.71c-2.61,1.54-6.11,2-8.69.14-.16-.11-.31.15-.15.26,2.66,1.94,6.3,1.45,9-.14a.15.15,0,0,0-.15-.26Z"/><path d="M149.7,106.59v2c0,.31,0,.65,0,1s-.09.51-.4.62a3.53,3.53,0,0,1-.46.15,10.41,10.41,0,0,1-3.85.27c-.65,0-1.29-.14-1.93-.23a3.54,3.54,0,0,1-1.87-.65c-1-.92.06-2.12-.16-3.22,0-.19-.33-.11-.29.08.15.72-.3,1.38-.32,2.09a1.65,1.65,0,0,0,.69,1.37,4,4,0,0,0,1.87.62c.72.11,1.44.2,2.17.26a9.34,9.34,0,0,0,4.39-.51c.55-.24.46-.67.46-1.21v-2.64a.15.15,0,0,0-.3,0Z"/><path d="M160.22,88.23q3.42-4.56,6.49-9.36a.15.15,0,0,0-.26-.15q-3.07,4.8-6.49,9.36c-.12.15.14.3.26.15Z"/><path d="M149.9,104.85a.36.36,0,0,0,0,.09l0,0-.15.29a.15.15,0,0,0,.05.2.16.16,0,0,0,.21-.05,2.71,2.71,0,0,0,.2-.42.15.15,0,0,0,0-.11.16.16,0,0,0-.09-.07.17.17,0,0,0-.12,0,.18.18,0,0,0-.06.09Z"/><path d="M160,88.05c-3.63,5.44-7.63,10.71-10.08,16.82-.07.18.22.26.29.08,2.44-6.08,6.44-11.33,10.05-16.74a.15.15,0,0,0-.26-.16Z"/><path d="M141.05,106.59a106.16,106.16,0,0,0-.13-19.69c0-.19-.32-.19-.3,0a106.16,106.16,0,0,1,.13,19.69c0,.19.29.19.3,0Z"/><path d="M150.57,95c-1.06,3.85-.95,7.86-.89,11.81a.15.15,0,0,0,.3,0c-.06-3.93-.17-7.91.88-11.73a.15.15,0,0,0-.29-.08Z"/><path d="M180,65.19a74.14,74.14,0,0,0-13.6,13.53c-.12.15.1.36.21.21a73.54,73.54,0,0,1,13.54-13.48c.15-.11,0-.37-.15-.26Z"/><path d="M240.38,66a40.51,40.51,0,0,1-13.77-1.92,106.28,106.28,0,0,1-13-4.84,37.58,37.58,0,0,1-5.33-3.31A9,9,0,0,0,203,54.42a26.34,26.34,0,0,0-11.21,3,73.53,73.53,0,0,0-11.94,7.83c-.15.11,0,.37.15.26,6.48-4.92,13.71-10.23,22.12-10.78a9.62,9.62,0,0,1,6.65,1.92,26.36,26.36,0,0,0,5.41,3.15,119.06,119.06,0,0,0,11.88,4.39,41.1,41.1,0,0,0,14.29,2.07c.19,0,.2-.31,0-.3Z"/><path d="M153.55,88.56a38.5,38.5,0,0,0-3.13,6.66.15.15,0,0,0,.29.08,37.71,37.71,0,0,1,3.1-6.59c.09-.17-.17-.32-.26-.15Z"/><path d="M157.44,76.78a3.73,3.73,0,0,1-.4.63.17.17,0,0,0,0,.12.15.15,0,0,0,.07.09.11.11,0,0,0,.11,0,.15.15,0,0,0,.09-.06,3.82,3.82,0,0,0,.4-.64.15.15,0,0,0,0-.2.16.16,0,0,0-.21,0Z"/><path d="M147.18,51c2.26,5.9,6.74,10.68,8.66,16.73a26.47,26.47,0,0,1-2.38,21,.15.15,0,0,0,.26.15,26.9,26.9,0,0,0,2.74-20.11c-1.68-6.58-6.59-11.63-9-17.9-.06-.18-.35-.1-.29.08Z"/><path d="M257,60.38A36,36,0,0,1,223.22,56c-3.51-2.49-6.7-5.41-10.24-7.85a26,26,0,0,0-10.57-4.61c-3.86-.59-7.52.45-11.07,1.92a59.2,59.2,0,0,0-17.8,12,124.31,124.31,0,0,0-16.16,19.43c-.11.16.15.31.26.15,8.47-12.12,18.44-24.22,32.17-30.53,3.87-1.78,8-3.25,12.33-2.65a26,26,0,0,1,11.23,5c3.39,2.41,6.48,5.21,9.89,7.59a35.9,35.9,0,0,0,9.85,4.91,36.72,36.72,0,0,0,24-.66c.18-.07.1-.36-.08-.29Z"/><path d="M151.51,124.66c.15,2.45-.55,4.84-.62,7.27a31,31,0,0,1-.26,3.6,14.09,14.09,0,0,0-.17,3.43c0,.19.32.19.3,0a16.3,16.3,0,0,1,.23-3.88,27.61,27.61,0,0,0,.2-3.15c.08-2.43.77-4.82.62-7.27,0-.19-.32-.19-.3,0Z"/><path d="M151.12,140.05l-.2.5a.15.15,0,0,0,0,.11.16.16,0,0,0,.09.07.14.14,0,0,0,.11,0,.18.18,0,0,0,.07-.09l.2-.5a.25.25,0,0,0,0-.12.2.2,0,0,0-.09-.07.23.23,0,0,0-.12,0,.22.22,0,0,0-.07.09Z"/><path d="M152.93,122.87c-.79,1.59-2.53,2.39-3.37,4-1,1.81-1,3.83-1.22,5.82,0,.2.28.19.3,0,.23-2,.24-4.17,1.35-6,.86-1.4,2.46-2.17,3.2-3.66.09-.17-.17-.32-.26-.15Z"/><path d="M167.56,102.32c-4.76,6.91-8.33,14.77-14.57,20.56-.14.13.07.34.22.21,6.26-5.81,9.83-13.69,14.61-20.62.11-.16-.15-.31-.26-.15Z"/><path d="M188.89,75.41a10.24,10.24,0,0,0-2.23,2.41,33.79,33.79,0,0,1-3.09,3.57c-2.06,2.1-4.25,4-6.15,6.29-3.82,4.52-6.81,9.71-10,14.68-.1.16.16.31.26.15,3.16-5,6.13-10.12,9.93-14.62,1.76-2.08,3.76-3.9,5.69-5.82a38.6,38.6,0,0,0,2.8-3.06A16.37,16.37,0,0,1,189,75.67c.16-.11,0-.37-.15-.26Z"/><path d="M257.12,60.49c-3.87,2.23-5.8,6.52-9.38,9.08-4.36,3.13-10.51,3-15.62,2.65a48.84,48.84,0,0,1-16.52-4c-4.49-2-8.85-4-13.82-2.56-5.44,1.54-9.41,5.79-13.08,9.86-.12.15.09.36.22.22,3.53-3.94,7.34-8,12.54-9.67a13.47,13.47,0,0,1,8.07,0c2.56.76,4.93,2,7.39,3a49,49,0,0,0,15.42,3.46c4.64.29,10,.36,14.19-1.87,4.43-2.34,6.42-7.43,10.74-9.92.17-.09,0-.35-.15-.26Z"/><path d="M147.44,128.54a7.61,7.61,0,0,0-1.22-1.95c-.51-.68-1-1.36-1.53-2.06-1-1.44-1.88-3-2.79-4.5-.1-.16-.36,0-.26.15.89,1.47,1.72,3,2.7,4.38.46.65.95,1.29,1.43,1.94a8.23,8.23,0,0,1,1.38,2.12c.06.18.35.1.29-.08Z"/><path d="M106,82.72a18.33,18.33,0,0,0-7.58-1.79,10.94,10.94,0,0,0-3.63.57,31.41,31.41,0,0,0-3.55,1.61c-.18.08,0,.34.15.25a29.61,29.61,0,0,1,3.73-1.66,11.25,11.25,0,0,1,3.56-.47A18,18,0,0,1,106,83c.18.08.26-.21.08-.29Z"/><path d="M141.91,120c-6.52-12-14.49-23.88-25.86-31.82a51.09,51.09,0,0,0-10.23-5.54c-.18-.07-.26.22-.08.29,13,5.22,22.72,15.85,30.16,27.43,2,3.19,3.95,6.47,5.75,9.8.1.17.35,0,.26-.16Z"/><path d="M91.28,83.09c-7.09,3.32-12.56,9.16-19.44,12.82-8.22,4.39-17.23,2.7-25.63-.24-.18-.07-.26.22-.08.29,8,2.79,16.76,4.61,24.73.79,7.43-3.56,13.1-9.9,20.57-13.4.17-.08,0-.34-.15-.26Z"/><path d="M83.88,104.75A34.11,34.11,0,0,1,73,107.88a47.09,47.09,0,0,1-10.48.07c-7.24-.85-12.44-6.55-16.26-12.28-.1-.16-.36,0-.26.15,3.79,5.69,8.9,11.33,16,12.37a39.69,39.69,0,0,0,5.45.23,49.46,49.46,0,0,0,6-.29A34.55,34.55,0,0,0,84,105c.17-.09,0-.35-.15-.26Z"/><path d="M122.51,129.22a83.1,83.1,0,0,0-7.75-10.71c-1.57-1.93-3.13-3.87-4.57-5.89a61.46,61.46,0,0,0-3.69-5.08,25.51,25.51,0,0,0-4.37-4,10.77,10.77,0,0,0-5.84-1.47,25.88,25.88,0,0,0-12.55,2.75c-.17.09,0,.35.15.26a25.43,25.43,0,0,1,12.85-2.69,9.86,9.86,0,0,1,6.41,2.38,28.2,28.2,0,0,1,4.5,4.7c2.35,3.25,4.65,6.47,7.17,9.59a78.45,78.45,0,0,1,7.43,10.32c.09.16.35,0,.26-.16Z"/><path d="M161.93,182.07a38.88,38.88,0,0,1-2.88,4.74c-.94,1.51-1.83,3-2.76,4.55a38.08,38.08,0,0,1-6.62,8.47c-.14.13.07.35.21.22a37.65,37.65,0,0,0,6.51-8.29c.93-1.51,1.83-3,2.76-4.54a41.92,41.92,0,0,0,3-5c.07-.18-.19-.33-.26-.15Z"/><path d="M161.08,153.31c0,4.88,1,9.69,1.38,14.55.19,2.4.28,4.82.32,7.23a18.26,18.26,0,0,1-.93,7.12c-.07.18.22.26.29.08a17.27,17.27,0,0,0,1-6.54q0-3.7-.3-7.41c-.36-5-1.37-10-1.42-15a.15.15,0,0,0-.3,0Z"/><path d="M180.52,127.38a53.37,53.37,0,0,0-7.63,4.37,41.36,41.36,0,0,0-6.29,6.19c-1.71,1.92-3.9,3.87-4.8,6.34-1,2.86-.86,6.34-.65,9.31,0,.19.32.19.3,0-.21-2.89-.36-6.23.56-9s3.53-5,5.43-7.12a35.62,35.62,0,0,1,6.14-5.82,56.72,56.72,0,0,1,7.09-4c.18-.08,0-.34-.15-.26Z"/><path d="M197.09,125.55c-4.42-.31-8.75.57-13.07,1.35a54.09,54.09,0,0,1-7.17.93c-2.11.1-4.26-.24-6.36.06a35,35,0,0,0-6.54,2,35.67,35.67,0,0,0-5.68,2.54,16.23,16.23,0,0,0-7.18,7.71c-.07.18.22.26.29.08,1.59-3.87,4.92-6.56,8.6-8.36a48.7,48.7,0,0,1,5.73-2.26,20.75,20.75,0,0,1,6.62-1.5c2,0,4.06.13,6.1-.06s3.79-.49,5.67-.83c4.3-.77,8.6-1.65,13-1.34.2,0,.2-.28,0-.3Z"/><path d="M152.92,162.79c-.07,3.09-.14,6.17-.22,9.26a16.75,16.75,0,0,1-.63,4.67,31.82,31.82,0,0,1-1.86,4.28c-.08.17.17.33.26.15a20.14,20.14,0,0,0,2.52-8.4c.1-3.32.15-6.64.23-10,0-.19-.29-.19-.3,0Z"/><path d="M150.32,181.93a5.83,5.83,0,0,1-1.7,1.9,4.49,4.49,0,0,1-2.68.86,6.83,6.83,0,0,1-5.24-1.2c-.15-.13-.36.08-.22.21,1.57,1.36,3.68,1.47,5.65,1.27a4.58,4.58,0,0,0,2.55-.8,6,6,0,0,0,1.89-2.09c.09-.17-.17-.32-.25-.15Z"/><path d="M136.28,152.74c4.38,8.86,4.43,19.3,4.14,29a35.78,35.78,0,0,1-.37,3.59,2.13,2.13,0,0,0,.18,1.47,2.9,2.9,0,0,0,1.69.88,12.41,12.41,0,0,0,3,.52,6.49,6.49,0,0,0,4.84-1.35c1.26-1.17,1.29-2.64.92-4.23a34.37,34.37,0,0,1-.51-8,41.15,41.15,0,0,1,.51-8.66c0-.19-.25-.27-.29-.08-.86,4-.52,8.25-.52,12.32a23.34,23.34,0,0,0,.12,2.77,29.66,29.66,0,0,1,.63,3.06c.12,2.91-2.83,4-5.27,3.94a12.52,12.52,0,0,1-3.16-.47c-.84-.23-1.78-.43-1.9-1.6a6.61,6.61,0,0,1,.22-1.58,43.31,43.31,0,0,0,.22-6,100.77,100.77,0,0,0-.6-13.11,39.85,39.85,0,0,0-3.61-12.52c-.09-.17-.35,0-.26.15Z"/><path d="M147.1,128.53c1.67,6,3.25,12.13,6.3,17.62a36.91,36.91,0,0,0,2.46,3.85c.92,1.26,2.23,2.41,2.65,4,.7,2.57-1.35,4.8-3.09,6.41s-3.85,3.88-6.33,4.46a3.38,3.38,0,0,1-4.15-2.64,9.33,9.33,0,0,0-1.06-3.14,25.29,25.29,0,0,0-3-2.8q-1.89-1.77-3.68-3.64a63.9,63.9,0,0,1-6.17-7.47,55.24,55.24,0,0,1-5.1-8.9c-1.15-2.53-1.35-5.41-3.62-7.29-.15-.12-.36.09-.21.21,2.29,1.91,2.55,5,3.74,7.6a54.46,54.46,0,0,0,5,8.69,66.28,66.28,0,0,0,6.1,7.37q1.78,1.88,3.68,3.64c1.21,1.14,3,2.2,3.5,3.81.72,2.14.9,4.77,3.77,5,2.62.19,4.54-1.87,6.35-3.42s3.64-3.08,4.42-5.25c1-2.63-.81-4.41-2.29-6.38-4.82-6.4-6.87-14.15-9-21.74a.15.15,0,0,0-.29.08Z"/><path d="M167,339.09c.2.77.37,1.55.5,2.34,0,.23.07.46.1.68a2.64,2.64,0,0,1,.06.55c0,.11,0,.18-.16.1a.81.81,0,0,1-.19-.18,2.39,2.39,0,0,1-.27-.43,36.77,36.77,0,0,1-2-4.32c-.06-.18-.35-.1-.29.08a26,26,0,0,0,1.13,2.59c.21.43.43.86.65,1.29a4.14,4.14,0,0,0,.65,1.09c.18.17.52.36.71.1s0-.76,0-1.05a24.32,24.32,0,0,0-.58-2.92.15.15,0,0,0-.29.08Z"/><path d="M164.79,352.57a10.29,10.29,0,0,0-2.43-2,15.37,15.37,0,0,1-1.43-.8,3.08,3.08,0,0,1-1.05-1.51c-.34-1-.42-2-.68-3A16,16,0,0,0,158,342c-.09-.17-.35,0-.26.16a15.73,15.73,0,0,1,1.26,3.48,16.86,16.86,0,0,0,.74,3.06,3.85,3.85,0,0,0,2,1.86,9.87,9.87,0,0,1,2.82,2.19c.13.14.34-.07.22-.22Z"/><path d="M148.77,296v-.28a.12.12,0,0,0-.05-.1.14.14,0,0,0-.1-.05.16.16,0,0,0-.11.05.12.12,0,0,0,0,.1V296a.14.14,0,0,0,.15.15.14.14,0,0,0,.1,0,.16.16,0,0,0,.05-.11Z"/><path d="M148.92,295.78l-.47-.91a.15.15,0,0,0-.26.15l.47.91a.15.15,0,0,0,.21.05.15.15,0,0,0,0-.2Z"/><path d="M148.4,315c.15,2.25-.24,4.54.14,6.78a19.62,19.62,0,0,0,2.24,5.64c2,3.8,4.49,7.38,5.61,11.58a.15.15,0,0,0,.29-.08c-1-3.83-3.16-7.16-5.06-10.6a24.34,24.34,0,0,1-2.65-6c-.59-2.4-.11-4.91-.27-7.35,0-.19-.31-.19-.3,0Z"/><path d="M136.56,327c.65,3.76,2.31,7.3,2.5,11.15a.15.15,0,0,0,.3,0c-.19-3.87-1.86-7.44-2.51-11.23,0-.19-.32-.11-.29.08Z"/><path d="M139.47,325c0,2-.23,4,.57,5.93a26,26,0,0,1,1.89,6.22c0,.19.32.11.29-.08a24.3,24.3,0,0,0-1.67-5.73,8.1,8.1,0,0,1-.8-3.24c0-1,0-2.07,0-3.1,0-.19-.29-.19-.3,0Z"/><path d="M224.43,149c-1,2-3.79,2.53-5.78,3a26,26,0,0,1-7,.52,35.5,35.5,0,0,1-13.78-3.69c-4.08-2-7.46-5.15-8.67-9.67a8.76,8.76,0,0,0-2.3-4.6,4,4,0,0,0-4.24-.8c-.18.07-.1.36.08.29,3-1.24,5.16,1.61,5.91,4.18a16.35,16.35,0,0,0,2.38,5.52c2.45,3.32,6.18,5.33,10,6.75a34.26,34.26,0,0,0,13.32,2.34,25,25,0,0,0,6.53-1.11c1.49-.48,3.07-1.06,3.83-2.54.09-.17-.17-.32-.26-.15Z"/><path d="M224.48,148.87a21.27,21.27,0,0,1-10.62-3.48c-3.09-1.84-6.29-3.74-8.14-6.93-.09-.17-.35,0-.26.15,1.88,3.24,5.11,5.17,8.25,7s6.88,3.49,10.77,3.52a.15.15,0,0,0,0-.3Z"/><path d="M205.68,138.44c-.88-2.29-1.77-4.58-2.83-6.8a36.08,36.08,0,0,0-1.91-3.51,6.23,6.23,0,0,0-1.7-2c-1.81-1.23-4.51-.15-6.31.56a16,16,0,0,0-3,1.4,31.19,31.19,0,0,1-2.86,2.13c-.18.08,0,.34.15.26a12.08,12.08,0,0,0,2.17-1.61,11.63,11.63,0,0,1,3.18-1.71c2-.79,5.08-2.18,6.93-.47,1.48,1.36,2.42,3.62,3.26,5.41,1,2.1,1.83,4.27,2.66,6.43.07.18.36.11.29-.08Z"/><path d="M187.15,130.16c-6.56,4.14-11.46,11-11.81,18.89-.1,2.27-.08,4.56-.06,6.83a55,55,0,0,0,.27,6.91c.58,4.5,1.67,9,2.53,13.45,0,.19.33.11.29-.08-.82-4.24-1.78-8.48-2.43-12.75a76.12,76.12,0,0,1-.34-13,21.82,21.82,0,0,1,3.32-11.68,26.84,26.84,0,0,1,8.38-8.32c.16-.11,0-.37-.15-.26Z"/><path d="M140.6,187.06q.09,7.17,0,14.36a.15.15,0,0,0,.3,0q.06-7.18,0-14.36a.15.15,0,0,0-.3,0Z"/><path d="M149.69,186.63l-.06,17.25a.15.15,0,0,0,.3,0l.06-17.25a.15.15,0,0,0-.3,0Z"/><path d="M148.38,205.46c-.35.4-.69.79-1,1.2a11,11,0,0,1-.94,1.2c-.91.85-2.09-.1-2.62-.89a34.72,34.72,0,0,1-2.86-5.68c-.07-.18-.33,0-.26.15.5,1.16,1,2.31,1.6,3.43a11.38,11.38,0,0,0,1.75,2.87,2,2,0,0,0,2.29.56,4.14,4.14,0,0,0,1.08-1.2c.38-.49.78-1,1.19-1.42.13-.15-.09-.36-.21-.22Z"/><path d="M178.12,180.54c-.89,3.37-4,5.81-6.48,8.05a51.36,51.36,0,0,1-8.45,6.62c-5.24,3-11,5.4-14.82,10.29-.12.15.09.37.21.21,4.26-5.41,10.73-7.46,16.26-11.17a66.56,66.56,0,0,0,8-6.68c2.22-2.06,4.73-4.2,5.53-7.24a.15.15,0,0,0-.29-.08Z"/><path d="M150,222.37a10.12,10.12,0,0,1-8.94.53c-.17-.07-.33.19-.15.26a10.41,10.41,0,0,0,9.24-.53c.16-.1,0-.36-.15-.26Z"/><path d="M171.2,196.47a42.71,42.71,0,0,1-7.63,8.09,53.44,53.44,0,0,1-4.91,3.52c-1.47.95-3.29,1.7-4.45,3.06-.13.14.08.36.21.21a8.7,8.7,0,0,1,2.34-1.74c.88-.52,1.74-1.06,2.59-1.62a53.91,53.91,0,0,0,4.66-3.4,43.29,43.29,0,0,0,7.45-8c.11-.16-.15-.31-.26-.15Z"/><path d="M178,176.35a21.49,21.49,0,0,1-.16,6.1,35,35,0,0,1-1.54,4.78,23.08,23.08,0,0,1-2.18,4.89,42.63,42.63,0,0,0-3,4.4c-.08.17.18.32.26.15.88-1.71,2.17-3.06,3.18-4.68a26.69,26.69,0,0,0,2-4.68,30.9,30.9,0,0,0,1.62-5.16,23.94,23.94,0,0,0,.09-5.8c0-.19-.31-.19-.3,0Z"/><path d="M149.83,229.09v3.53a.15.15,0,0,0,.3,0v-3.53a.15.15,0,1,0-.3,0Z"/><path d="M146.48,229.83c1.07-.17,2.16-.31,3.23-.52.48-.09.67-.08.74-.54a18.82,18.82,0,0,0-.1-3.18l-.1-3.18c-.06-2-.29-4.06.36-5.94a14.44,14.44,0,0,1,3.74-5c.14-.13-.08-.35-.21-.21a20.44,20.44,0,0,0-3.29,4,9.34,9.34,0,0,0-1,5c0,2,.12,4.06.18,6.09l.05,1.6c0,.48.17.9-.31,1.1a7.83,7.83,0,0,1-1.62.26l-1.79.29c-.19,0-.11.32.08.29Z"/><path d="M140.6,201.6q.27,11,.12,22.06a.15.15,0,0,0,.3,0q.15-11-.12-22.06a.15.15,0,0,0-.3,0Z"/><path d="M85.77,192.39a28.56,28.56,0,0,0-5.39,3.85c-.76.75-1.48,1.51-2.3,2.19A12.21,12.21,0,0,0,76,200.56c-.11.16.15.31.26.15a12.21,12.21,0,0,1,2.13-2.12c.8-.66,1.5-1.41,2.24-2.13a28.26,28.26,0,0,1,5.33-3.81.15.15,0,0,0-.15-.26Z"/><path d="M117.79,200.7c-5.09-3.45-10-7.46-15.84-9.53a19.29,19.29,0,0,0-16.25,1.26.15.15,0,0,0,.15.26,19.22,19.22,0,0,1,16.86-.92c5.48,2.16,10.1,5.91,14.93,9.19.16.11.31-.15.15-.26Z"/><path d="M137.89,220l-10.31-10.2a98.51,98.51,0,0,0-10-9.18c-.16-.11-.31.15-.15.26a99.85,99.85,0,0,1,10.2,9.42q5,5,10,9.92c.13.13.35-.08.21-.22Z"/><path d="M75.33,218.26a26.32,26.32,0,0,1-7.45.84,34.67,34.67,0,0,1-7.26-.67,56.6,56.6,0,0,1-13.28-4.28l0,.27a19.13,19.13,0,0,1,4.84-.26,14.51,14.51,0,0,0,3.87-.53,30.88,30.88,0,0,0,7.74-3,25.75,25.75,0,0,0,3-2.23A30.07,30.07,0,0,1,70.49,206a23.1,23.1,0,0,0,6-5.53c.12-.15-.09-.36-.22-.22a22.88,22.88,0,0,1-6.09,5.6,26.51,26.51,0,0,0-3.13,2,37.54,37.54,0,0,1-3.42,2.6,30.36,30.36,0,0,1-7.89,3c-2.81.74-5.7,0-8.49.73a.15.15,0,0,0,0,.28A55.73,55.73,0,0,0,61,218.81a35,35,0,0,0,6.92.59,26.48,26.48,0,0,0,7.53-.85.15.15,0,0,0-.08-.29Z"/><path d="M121.15,225.62q-5.54-4.55-11.33-8.76c-2.06-1.49-4.14-3-6.24-4.38a24.59,24.59,0,0,0-5.4-3c-4.14-1.47-8.21-.19-11.82,2-3.8,2.29-7.15,5.15-11.22,7-.18.08,0,.34.15.26,3.82-1.72,7-4.32,10.52-6.56,3.85-2.45,8.22-4,12.7-2.23a30.48,30.48,0,0,1,5.71,3.39q2.75,1.89,5.45,3.85,5.76,4.19,11.27,8.71c.15.13.36-.08.21-.21Z"/><path d="M140.2,259l-.12,1.55a6.92,6.92,0,0,0,0,1.51c0,.18.32.19.3,0a6.92,6.92,0,0,1,0-1.51l.12-1.55c0-.19-.29-.19-.3,0Z"/><path d="M150.57,261.74a3.32,3.32,0,0,0,.42-1.54c0-.59,0-1.19,0-1.78a.15.15,0,1,0-.3,0c0,.55,0,1.1-.05,1.65a3.12,3.12,0,0,1-.38,1.52c-.09.17.17.32.26.15Z"/><path d="M140.66,255.23c-.16,1-.36,1.92-.48,2.89a2.14,2.14,0,0,0,.74,1.95,6.17,6.17,0,0,0,4.47,1.52,7.85,7.85,0,0,0,4.43-1.76,3.59,3.59,0,0,0,1.4-1.84c.21-.89-.05-1.8.12-2.7,0-.18-.25-.26-.29-.08a12.52,12.52,0,0,0-.05,2,2.78,2.78,0,0,1-1.12,2.15,7.67,7.67,0,0,1-4.14,1.87,6,6,0,0,1-4.24-1.1,2.79,2.79,0,0,1-.88-.93,2.12,2.12,0,0,1-.1-1.34c.13-.86.29-1.72.43-2.58,0-.19-.25-.27-.29-.08Z"/><path d="M150.68,266.83c0-1.74,0-3.47-.05-5.2a.15.15,0,0,0-.28-.07c-1.1,1.71-3.38,1.88-5.23,1.85a6.8,6.8,0,0,1-4.85-1.65.15.15,0,0,0-.25.15,15.68,15.68,0,0,1,.22,4.27c0,.19.28.19.3,0a16.27,16.27,0,0,0-.23-4.35l-.25.14a7.23,7.23,0,0,0,5.22,1.75c1.93,0,4.19-.24,5.33-2l-.28-.08c.08,1.73.09,3.46,0,5.2a.15.15,0,0,0,.3,0Z"/><path d="M216.15,302.31c-8.46-3.07-17.63-1.23-26.3-3.12s-16.4-6.53-24.86-9a.15.15,0,0,0-.08.29c8.46,2.51,16.19,7.15,24.86,9s17.85,0,26.3,3.12c.19.07.26-.22.08-.29Z"/><path d="M216.18,302.28c-2.54-.73-5.21,0-7.8,0-2.93,0-5.86,0-8.78-.13a63.13,63.13,0,0,1-9-.93c-2.6-.49-5.15-1.37-7.82-1.39a.15.15,0,0,0,0,.3c2.8,0,5.48,1,8.21,1.46a63.13,63.13,0,0,0,8.12.84c2.78.13,5.57.15,8.36.16s5.89-.79,8.62,0a.15.15,0,0,0,.08-.29Z"/><path d="M223.56,319.69a88.34,88.34,0,0,0-10.75-6c-3.42-1.6-7.08-3.35-10.87-3.8-2-.24-4.13.33-6.12-.22a15,15,0,0,1-4.7-2.7c-2.85-2.11-6.52-3.75-8.24-7-.09-.17-.35,0-.26.15,1.59,3,4.74,4.5,7.39,6.41a27,27,0,0,0,4.61,3,9.71,9.71,0,0,0,4.78.58c4.5-.26,8.85,1.78,12.85,3.63a88.06,88.06,0,0,1,11.16,6.2c.16.1.32-.16.15-.26Z"/><path d="M223.45,319.65c-2.68-.1-5-1.37-7.3-2.63a64,64,0,0,0-6.36-2.91c-2.11-.88-4.1-2-6.44-1.69-1.19.14-2.36.28-3.56.31a7.19,7.19,0,0,1-3.9-.49.15.15,0,0,0-.16.26c1.71,1,4.19.61,6.06.42a10.39,10.39,0,0,1,4.12,0,37.61,37.61,0,0,1,3.8,1.52,78.51,78.51,0,0,1,7.31,3.44,14.87,14.87,0,0,0,6.43,2.11c.2,0,.2-.29,0-.3Z"/><path d="M225.66,337.6c-3.63-5.22-7.87-11.13-14.58-12.32-1.78-.32-3.61-.23-5.4-.52a9.12,9.12,0,0,1-4.87-2.36c-2.83-2.64-3.94-6.45-5-10a.15.15,0,0,0-.29.08c.91,3.17,1.87,6.46,4,9.06a10.48,10.48,0,0,0,7.88,3.74,21.46,21.46,0,0,1,5.53.84,16.6,16.6,0,0,1,5.18,3c2.92,2.42,5.11,5.58,7.26,8.68.11.15.37,0,.26-.16Z"/><path d="M225.52,337.65a44.85,44.85,0,0,1-5.47-4.45c-1.4-1.34-2.59-3-4.16-4.19-3.11-2.29-7.56-1.55-11.13-2.46-4.43-1.14-7.11-4.36-8.92-8.4-.86-1.93-1.4-4.09-2.67-5.83a17.75,17.75,0,0,0-4.13-3.69c-.15-.12-.3.14-.15.26a14.3,14.3,0,0,1,4.92,5.1c.92,1.87,1.49,3.88,2.46,5.74a13,13,0,0,0,7.61,6.88,26.62,26.62,0,0,0,5.54.93c2.3.2,4.75.42,6.6,1.95,1.62,1.34,2.91,3.11,4.47,4.53a45.73,45.73,0,0,0,4.88,3.89c.16.11.31-.15.15-.26Z"/><path d="M189,308.64a57.3,57.3,0,0,1-4.8-3.66c-1.34-1.23-2.38-2.73-3.76-3.94-2.44-2.13-5-4.35-8.08-5.44-.18-.06-.26.23-.08.29,3.29,1.15,6.1,3.62,8.61,6,1.26,1.17,2.23,2.62,3.55,3.73s2.94,2.22,4.41,3.31c.15.12.3-.14.15-.26Z"/><path d="M175.38,311.2a7.86,7.86,0,0,0,3.21,2.21c.41.15,1.06.24,1.25-.28s-.34-1-.63-1.31a14.74,14.74,0,0,0-1.56-1.28,18.5,18.5,0,0,1-1.77-1.53,8.39,8.39,0,0,1-2.33-3.74.15.15,0,0,0-.29.08c.64,2.35,2.43,4,4.29,5.49a13,13,0,0,1,1.35,1.1,2.42,2.42,0,0,1,.56.68c.31.82-.51.62-.92.46a7.88,7.88,0,0,1-2.95-2.09c-.12-.14-.34.07-.21.21Z"/><path d="M172.21,295.74a43.19,43.19,0,0,0,0,5,19.47,19.47,0,0,0,1.05,4.71c.06.18.35.1.29-.08a19.25,19.25,0,0,1-1.05-4.8,42.52,42.52,0,0,1,0-4.79c0-.19-.29-.19-.3,0Z"/><path d="M175.67,311.08c-3.26-2.85-4-6.82-4.36-10.93-.09-1-.16-1.95-.26-2.92-.05-.41-.09-.83-.15-1.24a3.23,3.23,0,0,0-.18-1.13,3.15,3.15,0,0,0-1.81-.89c-1-.26-2.11-.36-3.15-.58-.19,0-.27.25-.08.29,1,.21,2,.31,3,.54a3.74,3.74,0,0,1,1.31.47c.58.43.57,1.07.65,1.74.23,1.88.32,3.78.54,5.66.43,3.54,1.5,6.79,4.26,9.2.14.13.36-.09.21-.21Z"/><path d="M168.42,308a19.75,19.75,0,0,0-3.55-4.14,14.05,14.05,0,0,1-3.55-5.05c-.07-.18-.36-.1-.29.08a13.59,13.59,0,0,0,3.36,4.91,21.15,21.15,0,0,1,3.77,4.36c.1.17.36,0,.26-.16Z"/><path d="M191,324.48a51.15,51.15,0,0,1-5.68-4.49,31.69,31.69,0,0,0-5.25-3.71,136.78,136.78,0,0,1-11.77-8.41c-.14-.12-.36.09-.21.21a138.57,138.57,0,0,0,11.47,8.24,35.36,35.36,0,0,1,5.84,4.16,47.79,47.79,0,0,0,5.45,4.26c.16.12.31-.14.15-.26Z"/><path d="M190.88,324.67l9.43,11.06,4.79,5.62a25.06,25.06,0,0,1,2.18,2.75,8.61,8.61,0,0,1,.7,1.26c.13.28.77,1.53.6,1.87-.32.65-2-1.51-2.23-1.79a14.46,14.46,0,0,0-1.79-2,39.75,39.75,0,0,1-4.39-4.78c-2.88-3.63-5.72-7.34-8.88-10.74-3.32-3.57-7.31-6.06-11.44-8.58a.15.15,0,0,0-.15.26,59.22,59.22,0,0,1,9,6.2,69.35,69.35,0,0,1,7.05,7.88c2.29,2.81,4.42,5.87,7,8.47a46.91,46.91,0,0,1,3.66,3.8,3.94,3.94,0,0,0,2.35,1.74.16.16,0,0,0,.19-.18,11,11,0,0,0-2.59-5.19c-1.64-2-3.35-3.94-5-5.91l-10.23-12c-.13-.14-.34.07-.21.22Z"/><path d="M179.9,319.32a30.64,30.64,0,0,1-6.67-4.3l-6.66-5.15c-.15-.12-.36.09-.21.21l6.86,5.32a30,30,0,0,0,6.52,4.18c.18.08.33-.18.16-.26Z"/><path d="M159.11,300.4a14.75,14.75,0,0,0,1.22,2.75c.56.84,1.26,1.6,1.9,2.39a23.32,23.32,0,0,0,2,2.34,30.79,30.79,0,0,1,2.26,2.31c.13.14.34-.07.21-.21a27.72,27.72,0,0,0-2.06-2.14,18.7,18.7,0,0,1-1.94-2.22c-.65-.8-1.34-1.58-2-2.41a13.07,13.07,0,0,1-1.33-2.89c-.07-.17-.36-.1-.29.08Z"/><path d="M147.32,287.29c-2.46-.3-2.14,3-1.95,4.57a67.42,67.42,0,0,1,0,11.63c0,.2.29.2.3,0,.19-3.52.56-7.18.07-10.69-.2-1.44-1-5.52,1.53-5.21.19,0,.19-.28,0-.3Z"/><path d="M151.7,296.55c.69,1.7,1.36,3.4,2,5.1.07.18.36.1.29-.08-.68-1.7-1.35-3.4-2-5.1-.07-.18-.36-.1-.29.08Z"/><path d="M153.8,301.6a24.25,24.25,0,0,0,1.38,3.24c.6,1.13,1.38,2.17,1.95,3.31.25.5.43,1,.71,1.5s.7,1,1,1.51a6.34,6.34,0,0,0,1.89,2.19c.16.09.32-.16.15-.26a7.38,7.38,0,0,1-2-2.42,12.27,12.27,0,0,1-.91-1.35c-.26-.49-.44-1-.71-1.51-.53-1-1.21-1.93-1.75-2.94a24.25,24.25,0,0,1-1.46-3.35c-.06-.18-.35-.1-.28.08Z"/><path d="M160.73,313.24c.72.85,1.3,1.81,2.08,2.62a11.72,11.72,0,0,0,2.32,1.82,53.7,53.7,0,0,0,6.14,3.24,42.7,42.7,0,0,1,6,2.87,22.32,22.32,0,0,1,5.34,5c.12.16.38,0,.26-.15a23.37,23.37,0,0,0-4.23-4.26,23.86,23.86,0,0,0-5.74-3.07,58.83,58.83,0,0,1-6.7-3.33,14.2,14.2,0,0,1-2.95-2.09,34.19,34.19,0,0,1-2.34-2.88c-.12-.14-.33.07-.21.22Z"/><path d="M182.62,328.79a52,52,0,0,1,5.57,8.49,23.74,23.74,0,0,1,2.74,9.78c0,.19.32.19.3,0a24,24,0,0,0-2.63-9.64,50.11,50.11,0,0,0-5.77-8.84c-.12-.15-.33.07-.21.21Z"/><path d="M190.91,347c.44,2.56.44,5.15.78,7.72a37.89,37.89,0,0,0,1.42,7.32c.06.18.35.1.29-.08a40.54,40.54,0,0,1-1.48-7.74c-.32-2.43-.31-4.88-.72-7.3,0-.19-.32-.11-.29.08Z"/><path d="M194.45,364.23a20.05,20.05,0,0,0,2,2.7c.11.13.79.76.4.95-.22.11-.67-.17-.85-.28a11.53,11.53,0,0,1-1.45-1.1,9,9,0,0,1-2.16-2.51,11.15,11.15,0,0,1-1.36-3.2c0-.19-.33-.11-.29.08a11.06,11.06,0,0,0,1.21,2.94,9,9,0,0,0,1.82,2.41c.39.36.79.68,1.2,1a5.44,5.44,0,0,0,1.25.83c.27.11.79.25,1,0s-.06-.69-.22-.9a30.75,30.75,0,0,1-2.28-3.06c-.09-.17-.35,0-.26.15Z"/><path d="M193.1,362a7.59,7.59,0,0,0,1.41,2.3.15.15,0,0,0,.21,0,.16.16,0,0,0,0-.22,6.89,6.89,0,0,1-1.33-2.16c-.06-.18-.35-.1-.29.08Z"/><path d="M189.71,351.47c.18,1.66.08,3.34.27,5,.1.82.23,1.64.31,2.47a5.93,5.93,0,0,0,.44,2c.08.17.34,0,.26-.15a6.89,6.89,0,0,1-.44-2.34c-.08-.78-.23-1.55-.3-2.33-.14-1.55-.07-3.11-.24-4.65,0-.19-.32-.2-.3,0Z"/><path d="M176.24,326.12c3.44,3.47,6.91,7,9.45,11.21s3.54,9,4,14c0,.19.32.2.3,0-.49-4.84-1.39-9.51-3.87-13.77s-6.15-8.05-9.71-11.65c-.13-.13-.34.08-.21.22Z"/><path d="M145.4,303.38c.16,3.33-.24,6.68-.27,10a24.9,24.9,0,0,0,.13,4.23c.27,1.66.82,3.29,1.25,4.91a.15.15,0,0,0,.29-.07c-.4-1.52-.88-3-1.19-4.57a24.63,24.63,0,0,1-.18-4.86c0-3.22.43-6.45.27-9.66,0-.2-.31-.2-.3,0Z"/><path d="M146.46,322.56a57.61,57.61,0,0,0,4,10.1,39.6,39.6,0,0,0,2.47,4.86,16.1,16.1,0,0,1,2.5,4.72c0,.19.33.11.29-.08a13.87,13.87,0,0,0-2.18-4.26,35,35,0,0,1-2.52-4.72,61.93,61.93,0,0,1-4.25-10.7.15.15,0,0,0-.29.08Z"/><path d="M155.34,342.23c.46,1.17.94,2.32,1.39,3.49a7,7,0,0,1,.43,1.8,2.74,2.74,0,0,1-.36,1.89c-.56,1-1.5,1.37-2.21,2.17a7.06,7.06,0,0,0-1.06,2.72.15.15,0,0,0,.29.08c.18-.6.33-1.21.54-1.8a3,3,0,0,1,1.21-1.44,5.25,5.25,0,0,0,1.79-2.17,4.67,4.67,0,0,0-.23-3c-.45-1.28-1-2.53-1.51-3.79-.07-.17-.36-.09-.28.08Z"/><path d="M153.55,354.24a40.56,40.56,0,0,0,.13,6,43.38,43.38,0,0,1,.53,5.57,14.93,14.93,0,0,1-1.28,5.44,21,21,0,0,0-1.69,5c0,.19.28.19.3,0,.23-2,1.29-3.83,2-5.69a13.2,13.2,0,0,0,1-4.72,43.38,43.38,0,0,0-.53-5.57,39.29,39.29,0,0,1-.13-6c0-.19-.29-.19-.3,0Z"/><path d="M148.56,295.73c2.89,8.15,7.88,15.34,10.79,23.48.07.18.36.1.29-.08-2.91-8.14-7.9-15.33-10.79-23.48-.07-.18-.36-.1-.29.08Z"/><path d="M148.47,296.13c0,6.37-.41,12.74,0,19.1,0,.19.31.19.3,0-.37-6.36,0-12.73,0-19.1a.15.15,0,0,0-.3,0Z"/><path d="M164.47,352.66a23.85,23.85,0,0,0,3.41,3c.16.12.31-.14.15-.26a23.65,23.65,0,0,1-3.35-3,.15.15,0,1,0-.21.21Z"/><path d="M156.45,339.12c.44,1.06.9,2.1,1.38,3.13.08.18.34,0,.26-.15q-.71-1.52-1.35-3.06c-.08-.17-.37-.09-.29.08Z"/><path d="M159.3,319c1,6.52,3.63,12.63,5.46,18.94a.15.15,0,0,0,.29-.08c-1.83-6.31-4.43-12.42-5.47-18.94,0-.19-.31-.11-.28.08Z"/><path d="M167.31,339.07c-1.41-4.3-3.22-8.53-3.87-13,0-.19-.31-.11-.29.08.65,4.5,2.46,8.73,3.87,13,.06.18.35.1.29-.08Z"/><path d="M161.75,319.81a17.57,17.57,0,0,0,.43,3.14c.28,1.06.77,2,1,3.13,0,.19.32.11.29-.08a9.43,9.43,0,0,0-.41-1.56,14.89,14.89,0,0,1-.52-1.46,16.15,16.15,0,0,1-.45-3.17c0-.19-.32-.19-.3,0Z"/><path d="M162.05,319.81a3.23,3.23,0,0,1-.31-1.53.15.15,0,0,0-.3,0,3.6,3.6,0,0,0,.35,1.68.17.17,0,0,0,.21.06.16.16,0,0,0,.05-.21Z"/><path d="M172.46,326.6a19.51,19.51,0,0,0-.25-2,2.37,2.37,0,0,0-.57-1.4,3.78,3.78,0,0,0-1.51-.56l-2.06-.58a8.78,8.78,0,0,1-3.42-1.92,11.66,11.66,0,0,0-2.78-2c-.17-.07-.33.19-.15.26,1.95.86,3.21,2.76,5.19,3.56a35.45,35.45,0,0,0,3.61,1.06,2,2,0,0,1,.95.42,1.7,1.7,0,0,1,.39.91,18.33,18.33,0,0,1,.3,2.21c0,.2.31.2.3,0Z"/><path d="M172.1,326.53a13.75,13.75,0,0,1,.34,4.34,20,20,0,0,0,.27,3.94,41.49,41.49,0,0,0,2.59,8.12c.07.18.36.1.29-.08a41.49,41.49,0,0,1-2.59-8.12,22.88,22.88,0,0,1-.25-4.45,12,12,0,0,0-.36-3.83.15.15,0,0,0-.29.08Z"/><path d="M182.83,367.1a27.13,27.13,0,0,0-1.91,5.5c-.13.47-.28.93-.44,1.38a5.15,5.15,0,0,1-.43,1c-.18.24-.15.38-.37.11a4.69,4.69,0,0,1-.18-1.82,12,12,0,0,1,.14-2,29.92,29.92,0,0,1,1.86-6.27c.87-2.26,1.86-4.48,2.89-6.67.09-.17-.17-.33-.26-.15-1.13,2.41-2.22,4.85-3.15,7.35a22.09,22.09,0,0,0-1.78,7.57c0,.48-.12,2.31.46,2.56s.77-.8.9-1.11c1-2.41,1.27-5,2.53-7.35.09-.17-.17-.32-.26-.15Z"/><path d="M184.29,358.37a4.43,4.43,0,0,0,.6-3.59,5,5,0,0,0-2.12-2.63c-2.1-1.56-3-4.15-4.94-5.9-.15-.13-.36.09-.22.22,1.66,1.5,2.55,3.63,4.14,5.2.84.84,2,1.34,2.55,2.43a4.09,4.09,0,0,1-.27,4.11c-.11.17.15.32.26.16Z"/><path d="M175.27,342.82a16.8,16.8,0,0,0,2.41,3.66c.12.15.38,0,.26-.15a16.23,16.23,0,0,1-2.38-3.59c-.07-.17-.36-.1-.29.08Z"/><path d="M176.5,325.91a3.16,3.16,0,0,0-1-.62.64.64,0,0,0-.85.25,2.46,2.46,0,0,0-.3,1,5.5,5.5,0,0,0,0,1.28c0,.19.32.2.3,0a5.46,5.46,0,0,1,0-1.07,3.23,3.23,0,0,1,.21-.93.61.61,0,0,1,.2-.28.37.37,0,0,1,.39,0,3.29,3.29,0,0,1,.83.54c.15.13.36-.08.21-.21Z"/><path d="M174.4,327.8c.15,6.23.81,13.52,5.22,18.34.13.14.34-.07.21-.21-4.34-4.76-5-12-5.13-18.13,0-.19-.31-.19-.3,0Z"/><path d="M179.58,346.05a52.63,52.63,0,0,0,3.45,4.29c.7.79,1.4,1.58,2.11,2.36s2.05,1.79,2,3-.81,2.29-1.26,3.3-.82,1.91-1.22,2.87a33,33,0,0,0-2,5.3c0,.18.25.26.29.08a41.76,41.76,0,0,1,2.45-6.47c.44-1,.88-2.05,1.35-3.07a4.4,4.4,0,0,0,.63-2.34,3,3,0,0,0-.94-1.63c-.74-.81-1.48-1.61-2.21-2.43a64.29,64.29,0,0,1-4.47-5.42c-.12-.15-.38,0-.26.15Z"/><path d="M167.85,355.67a33.89,33.89,0,0,1,3.61,5.78c1.1,2.16,2.26,4.43,1.94,6.92l.25-.11a26.24,26.24,0,0,1-2.48-3.52c-.69-1.2-1.15-2.5-1.76-3.74a29.81,29.81,0,0,0-2.19-3.58,12.35,12.35,0,0,0-2.56-3c-.15-.12-.37.09-.22.21a13.38,13.38,0,0,1,2.73,3.22,24.85,24.85,0,0,1,2.19,3.72,32.23,32.23,0,0,0,1.74,3.6,28.77,28.77,0,0,0,2.34,3.28c.09.11.24,0,.26-.11.32-2.46-.78-4.72-1.87-6.85a35.06,35.06,0,0,0-3.77-6.06c-.12-.15-.33.06-.21.21Z"/><path d="M164.65,354.43l-2.59-1.93c-.3-.22-.63-.64-1-.4s-.48,1-.51,1.44c-.08,1,0,2,0,3,0,2.07,0,4.15,0,6.23s-.82,3.81-1.12,5.73c0,.19.26.27.29.08a21.54,21.54,0,0,1,.46-2.37,17.32,17.32,0,0,0,.58-2.14,35.4,35.4,0,0,0,.1-4.94c0-1.75,0-3.51,0-5.27a2.43,2.43,0,0,1,.25-1.34c.34-.39.78.16,1.08.39l2.33,1.73c.16.11.31-.15.16-.26Z"/><path d="M159.36,368.55a29.61,29.61,0,0,0-.81,3.5,23.42,23.42,0,0,1-.84,4.54c-.79,2.7-1.71,5.86-3.56,8l.25.11a27.86,27.86,0,0,1,.13-6.58,34.18,34.18,0,0,1,1.81-5.77c.67-2,.77-4.12,1.35-6.13a16.89,16.89,0,0,0,.45-5.58c0-.19-.31-.19-.3,0,0,1,.09,2,0,3a17.84,17.84,0,0,1-.71,3.32c-.53,2-.63,4.11-1.41,6.09a23.42,23.42,0,0,0-1.58,5.46,29,29,0,0,0-.07,6.18c0,.11.17.21.26.1,1.72-2,2.57-4.82,3.37-7.3a23,23,0,0,0,1-4.17c.11-.83.1-1.68.29-2.5s.47-1.47.63-2.23a.15.15,0,0,0-.29-.08Z"/><path d="M155.28,370.13c-.59,1.4-1.19,2.8-1.73,4.22-.26.69-.5,1.38-.74,2.08a3.34,3.34,0,0,1-1.06,1.7l.21.05a2.43,2.43,0,0,1-.44-1.92c0-.18-.26-.27-.29-.08a2.77,2.77,0,0,0,.47,2.16.15.15,0,0,0,.2.05c1-.76,1.3-2.25,1.72-3.39.59-1.59,1.26-3.16,1.92-4.72.08-.18-.18-.33-.26-.15Z"/><path d="M158.13,354.63c-.06-.66-.07-1.35-.19-2a1,1,0,0,0-.58-.82c-1.05-.33-1.61,1.29-1.78,2a15.69,15.69,0,0,0-.29,4.16,21.91,21.91,0,0,0,.6,4.34.15.15,0,0,0,.29-.08,21.46,21.46,0,0,1-.55-6.59,6.07,6.07,0,0,1,.77-3.07c.19-.26.61-.64,1-.43s.29.54.32.79c.06.57.1,1.13.15,1.7,0,.19.32.19.3,0Z"/><path d="M155.9,362.23a22.43,22.43,0,0,1-.6,7.83c-.05.19.24.27.28.08a22.19,22.19,0,0,0,.62-7.91c0-.19-.32-.19-.3,0Z"/><path d="M157.84,354.52V361a.15.15,0,0,0,.3,0v-6.43a.15.15,0,0,0-.3,0Z"/><path d="M172.44,295.63h0s0,0,0,0l0,0-.08,0-.13-.08h0s0,0,0,0,0,0,0,0h0l-.06,0-.12-.13a.15.15,0,0,0-.21,0,.17.17,0,0,0,0,.22,1.49,1.49,0,0,0,.6.42.24.24,0,0,0,.12,0,.2.2,0,0,0,.07-.09.16.16,0,0,0,0-.12.22.22,0,0,0-.09-.07Z"/><path d="M145.55,289.65a2.69,2.69,0,0,0-.88-1.63c-.55-.39-.93-.09-1.53-.15s-.71-.66-1.35-.56c-.46.07-.73.31-1.22,0a6,6,0,0,0-.8-.51c-1.4-.56-3,.22-4.32.66l-5.86,2c-.18.06-.11.35.08.29l4.68-1.57c1.41-.47,3.13-1.36,4.64-1.22a2.56,2.56,0,0,1,1.37.61,1.13,1.13,0,0,0,.41.25c.66.18,1-.41,1.72.12.32.24.39.39.82.33l.45-.16a1.14,1.14,0,0,1,1.13.6,3.73,3.73,0,0,1,.37,1,.15.15,0,0,0,.29-.08Z"/><path d="M145.23,289.33a8,8,0,0,1-.57,3.49,19.31,19.31,0,0,0-.76,3.45c-.33,2.19-.68,4.38-1.11,6.56-.89,4.41-2.37,8.69-3,13.15,0,.18.27.27.29.08.64-4.62,2.19-9.05,3.08-13.62.45-2.33.77-4.68,1.17-7,.36-2.11,1.36-3.93,1.19-6.09,0-.19-.32-.19-.3,0Z"/><path d="M142.87,291a29.67,29.67,0,0,1-1,3.9c-.24,1-.39,2-.57,3.06q-.66,3.57-1.39,7.14-1.47,7.13-3.29,14.18a.15.15,0,0,0,.29.08q1.88-7.29,3.39-14.65.72-3.57,1.37-7.15a33,33,0,0,1,.72-3.42,17.11,17.11,0,0,0,.76-3.14c0-.2-.28-.19-.3,0Z"/><path d="M142.84,291.57a24.57,24.57,0,0,0-5.13,3.77,18.68,18.68,0,0,1-2.8,2c-1.09.64-2.18,1.27-3.22,2-.15.11,0,.37.16.26,1.9-1.36,4-2.36,5.8-3.85a26.41,26.41,0,0,1,5.34-4c.17-.08,0-.34-.15-.26Z"/><path d="M141.81,289.67a41.19,41.19,0,0,0-5.94,3.83,35.24,35.24,0,0,1-5.76,3.77c-.18.09,0,.35.15.26a35.24,35.24,0,0,0,5.76-3.77,41.75,41.75,0,0,1,5.94-3.83c.18-.09,0-.35-.15-.26Z"/><path d="M141.29,290a126,126,0,0,0-13.37,2.52c-4.41,1.15-9,2.08-13.21,3.75-.18.07-.1.36.08.29,4.25-1.68,8.8-2.6,13.21-3.75a126,126,0,0,1,13.37-2.52c.19,0,.1-.32-.08-.29Z"/><path d="M129.6,289.43c-3.07,1.11-6.29,1.63-9.45,2.44S114,294,110.77,294.7c-.19,0-.11.33.08.29,3.2-.68,6.21-2,9.38-2.83s6.38-1.33,9.45-2.44c.18-.07.11-.36-.08-.29Z"/><path d="M139.8,316a5.66,5.66,0,0,1-.51,2.23,6.82,6.82,0,0,0-.31,1.69,3.84,3.84,0,0,0,1.35,3.05,27.08,27.08,0,0,1,5.12,7c.09.17.35,0,.26-.15a26.81,26.81,0,0,0-4.5-6.37,17,17,0,0,1-1.37-1.45,3.29,3.29,0,0,1-.56-2.18c.09-1.31.94-2.51.82-3.81,0-.2-.32-.2-.3,0Z"/><path d="M145.4,329.93c.24.51.52,1,.71,1.54a1.06,1.06,0,0,1,.09.68c-.14.41-.65.33-.91.1a4.09,4.09,0,0,1-.75-1.26,10.19,10.19,0,0,0-.83-1.23c-1.33-1.73-2.78-3.39-4.17-5.08-.13-.15-.34.07-.21.21l2.65,3.22a19.88,19.88,0,0,1,2.4,3.21,2.88,2.88,0,0,0,.85,1.26.9.9,0,0,0,1,0,1,1,0,0,0,.18-1.09,15.48,15.48,0,0,0-.78-1.71c-.08-.17-.34,0-.26.15Z"/><path d="M141.78,336.68a14.63,14.63,0,0,1,.64,4.74c0,.2.29.2.3,0a14.89,14.89,0,0,0-.65-4.82.15.15,0,0,0-.29.08Z"/><path d="M142.41,341.39a24.92,24.92,0,0,1-.25,5.79,26.6,26.6,0,0,1-1.75,4.78,14,14,0,0,1-2.63,4.48,12.19,12.19,0,0,0-2.47,3.29c-.08.17.18.32.26.15a15.32,15.32,0,0,1,2.88-3.74,13.9,13.9,0,0,0,2.25-4.1,24.76,24.76,0,0,0,1.81-5.12,26.9,26.9,0,0,0,.2-5.53c0-.2-.31-.2-.3,0Z"/><path d="M135.3,359.72a77.56,77.56,0,0,0-6.22,9.43,4,4,0,0,0-.76,1.89c0,.93.33,1.87.4,2.81a37.54,37.54,0,0,1-.13,5.9c0,.19.29.19.3,0a43.31,43.31,0,0,0,.17-5.34,20,20,0,0,0-.26-2.3,3.24,3.24,0,0,1,.27-2.32c.19-.39.42-.76.64-1.13a75,75,0,0,1,5.85-8.79c.12-.15-.14-.3-.26-.15Z"/><path d="M128.84,379.67a14.48,14.48,0,0,1-.76-4.12c0-1.27-.52-2.36-.65-3.61a9.64,9.64,0,0,1,.15-3.86,11.09,11.09,0,0,1,2.33-3.25c.13-.14-.08-.36-.21-.21a13.16,13.16,0,0,0-2.31,3.11,8.49,8.49,0,0,0-.3,3.65c.07,1.44.68,2.74.69,4.17a14.69,14.69,0,0,0,.77,4.2c.06.18.35.1.29-.08Z"/><path d="M138.62,350.15a70.12,70.12,0,0,1-4.18,7.47,64.86,64.86,0,0,1-4.72,7c-.12.14.09.36.22.21a62.14,62.14,0,0,0,4.61-6.85,72,72,0,0,0,4.33-7.71c.08-.18-.18-.33-.26-.15Z"/><path d="M139,337.5c.94,4.31,1.26,8.63-.48,12.79-.08.18.21.26.29.08,1.76-4.21,1.43-8.59.48-12.95,0-.19-.33-.11-.29.08Z"/><path d="M136.9,327c-.17-.68-.23-1.38-.44-2-.12-.37-.35-.82-.82-.72a1.69,1.69,0,0,0-.73.45,5.34,5.34,0,0,0-.76.88,8.58,8.58,0,0,0-.92,2.13c-.26.84-.45,1.7-.73,2.53-.06.18.23.26.29.08a33.65,33.65,0,0,1,1.27-3.95,4.24,4.24,0,0,1,1.32-1.67c.13-.09.34-.23.51-.14s.23.33.28.49c.21.66.28,1.36.44,2a.15.15,0,0,0,.29-.08Z"/><path d="M132.59,330.08,131.24,333l-.33.73c0,.11-.1.22-.16.33s-.06.26-.19.14-.18-.58-.2-.75a3.57,3.57,0,0,1,0-.73c.1-2,1.43-3.63,1.75-5.56,0-.19-.26-.27-.29-.08-.36,2.21-2.09,4.16-1.72,6.49.05.29.13.93.5,1s.52-.54.63-.77l1.65-3.58c.08-.17-.18-.32-.26-.15Z"/><path d="M136.64,319.25a5.82,5.82,0,0,1-.67,2.38,2.48,2.48,0,0,1-.91.85,3.87,3.87,0,0,0-1,.62,9.19,9.19,0,0,0-1.36,1.79,6.44,6.44,0,0,0-.86,2.12c0,.18.25.26.29.07a6.38,6.38,0,0,1,.93-2.2,5.49,5.49,0,0,1,1.71-1.93,3.31,3.31,0,0,0,1.53-1.33,6.48,6.48,0,0,0,.61-2.29c0-.19-.26-.27-.29-.08Z"/><path d="M131.77,299.31c-1.79.95-3.15,2.49-4.85,3.56a12.34,12.34,0,0,0-3.87,4.6,27.25,27.25,0,0,0-1.94,6.12,33.16,33.16,0,0,0-1.1,6.86.15.15,0,0,0,.3,0,32.78,32.78,0,0,1,1-6.59,27.37,27.37,0,0,1,2-6.23,18,18,0,0,1,1.74-2.56,9.39,9.39,0,0,1,2.45-2.21c1.53-1,2.77-2.42,4.42-3.29.17-.09,0-.35-.15-.26Z"/><path d="M130.22,297.23c-2.36,1.72-4.72,3.45-7,5.31-2.07,1.71-2.66,4.42-3.57,6.84a23.59,23.59,0,0,1-1.7,4.16c-.85,1.38-2.2,1.91-3.51,2.74a17.77,17.77,0,0,0-5.27,5.2c-.11.17.15.32.26.16a17.55,17.55,0,0,1,6-5.61,7.1,7.1,0,0,0,2.48-1.89,12,12,0,0,0,1.35-2.87l1.6-4.29a9.17,9.17,0,0,1,2.12-3.85,87.28,87.28,0,0,1,7.35-5.64c.15-.12,0-.38-.15-.26Z"/><path d="M120.11,320.25a35.91,35.91,0,0,0-1.28,8c-.07,2.36,1.93,3.68,3.35,5.34,3.68,4.29,7.83,9.7,5.25,15.58-.08.18.18.33.26.15,2.12-4.82-.12-9.24-3-13.14-.72-1-1.47-1.9-2.25-2.81a33.79,33.79,0,0,1-2.83-3.16c-.92-1.39-.31-3.9-.08-5.45a39.07,39.07,0,0,1,.92-4.4.15.15,0,0,0-.29-.08Z"/><path d="M117.85,331.11a22.58,22.58,0,0,1-1.83,8.12,31.18,31.18,0,0,1-3.76,7.36c-2.88,3.93-6.89,7.29-8.21,12.16a.15.15,0,0,0,.29.08c1.42-5.23,6-8.85,9-13.17a30.19,30.19,0,0,0,3.18-6.78,21.93,21.93,0,0,0,1.68-7.77.15.15,0,0,0-.3,0Z"/><path d="M117.94,331.55c1.89,1.5,2.65,3.85,4.23,5.62a15.81,15.81,0,0,1,2.65,3.12,16.56,16.56,0,0,1,1.65,4.07c.71,3.2-1.64,5.58-3.42,7.93a16.28,16.28,0,0,1-3,3.14,6.61,6.61,0,0,0-2.08,2.29c-.08.17.18.33.26.15.62-1.29,1.81-2,2.85-2.89a20.38,20.38,0,0,0,2.7-3.23c1.61-2.11,3.49-4.22,3-7.06a13.08,13.08,0,0,0-3.63-6.91c-2-1.92-2.89-4.72-5-6.44-.15-.12-.37.09-.22.21Z"/><path d="M127.5,349l-2.11,3.1a14.13,14.13,0,0,1-2.31,3c-.9.77-1.88,1.43-2.8,2.17s-1.9,1.6-2.81,2.44l.25.11a6.26,6.26,0,0,1,.53-2c.08-.18-.18-.33-.26-.15a7,7,0,0,0-.57,2.11c0,.13.17.18.26.1.91-.84,1.85-1.66,2.81-2.44s2-1.46,2.94-2.29a14.27,14.27,0,0,0,2.1-2.73l2.23-3.27c.11-.16-.15-.31-.26-.15Z"/><path d="M104.19,358.29c-.7,3.24-.34,6.71-.3,10a28.38,28.38,0,0,1-.22,5.68,5.68,5.68,0,0,1-.3,1.31c-.15.33-.13.74-.5.39s-.52-2.26-.57-2.75c-.37-3.47-.53-7-.56-10.53s.06-7.81,3-10.11c.15-.12-.06-.33-.21-.22-3.29,2.58-3.17,7.68-3.07,11.46.07,2.5.22,5,.39,7.5.11,1.61,0,4.1,1.07,5.45a.15.15,0,0,0,.17.07c.28-.08.22-.11.38-.36a8,8,0,0,0,.53-2.36,23,23,0,0,0,.2-4.62c0-3.55-.47-7.36.28-10.84a.15.15,0,0,0-.29-.08Z"/><path d="M118.06,316.27c0,3.82-1,7.59-1.73,11.31l-1.07,5.4a29,29,0,0,1-1.4,5.74c-.07.17.18.33.26.15a26.81,26.81,0,0,0,1.34-5.38l1.16-5.83c.74-3.74,1.74-7.55,1.74-11.39a.15.15,0,0,0-.3,0Z"/><path d="M104.69,352.4q2.75-3.52,5.5-7.06a24.22,24.22,0,0,0,4-6.59c.07-.18-.22-.26-.28-.08a25.73,25.73,0,0,1-4.19,6.84c-1.74,2.23-3.48,4.45-5.21,6.68-.12.15.09.37.21.21Z"/><path d="M118.2,316.06c-1.9.55-3.09,2-4.39,3.42-1.6,1.74-3.22,3.5-4.67,5.37a21.85,21.85,0,0,0-2.71,5.45l-2.81,7c-.07.18.22.25.29.08l2.43-6.05a26.32,26.32,0,0,1,2.74-5.89,61.29,61.29,0,0,1,4.26-5c1.43-1.57,2.82-3.47,4.94-4.09a.15.15,0,0,0-.08-.29Z"/><path d="M109.28,321.41a47.16,47.16,0,0,0-4,7.62c-1.13,2.56-2.28,5.13-3.25,7.76-.22.59-2,5.19-.84,5.16.51,0,1.16-1.09,1.4-1.48a13.3,13.3,0,0,0,1.27-3.1c.06-.19-.23-.26-.29-.08a13,13,0,0,1-1.09,2.77,3.18,3.18,0,0,1-.84,1.16c-.13.26-.25.27-.36,0a.21.21,0,0,1-.11-.33,2.24,2.24,0,0,1,.14-.72,38.06,38.06,0,0,1,2.18-6.29c1.77-4.22,3.45-8.57,6-12.37.1-.16-.16-.31-.26-.15Z"/><path d="M114.79,296.31c-1.51.61-3.22,1.06-4.29,2.38s-1.55,3-2.45,4.47c-2.4,3.83-5.06,7.52-7.59,11.27l.27.11c1.24-3,2.38-6,3.74-8.88,1-2.14,3-4,3.16-6.43,0-.19-.28-.19-.3,0a8,8,0,0,1-1.65,3.76,21,21,0,0,0-1.87,3.42c-1.15,2.67-2.25,5.37-3.37,8-.07.17.18.25.27.12,2.36-3.49,4.72-7,7.07-10.45.94-1.4,1.53-2.94,2.38-4.39,1.07-1.85,2.83-2.39,4.71-3.14.18-.07.1-.36-.08-.29Z"/><path d="M107.74,298.86a12.27,12.27,0,0,0-3.78.75c-1.3.37-2.65.31-3.93.72s-2.61.86-3.9,1.34a11.57,11.57,0,0,0-3.19,1.67c-.15.12.06.33.21.22a12.15,12.15,0,0,1,3.54-1.78c1.21-.42,2.43-.88,3.66-1.24s2.39-.28,3.57-.6a12.56,12.56,0,0,1,3.82-.78.15.15,0,0,0,0-.3Z"/><path d="M93,303.19a8.32,8.32,0,0,0-2.4,4c-.49,1.92-.16,4-.45,5.91A17.26,17.26,0,0,1,88.29,319,59.84,59.84,0,0,1,84.84,324c-.11.16.15.31.26.15,1.16-1.62,2.45-3.21,3.45-4.94a16.54,16.54,0,0,0,1.71-4.89,34.25,34.25,0,0,0,.42-5.35,8,8,0,0,1,2.56-5.52.15.15,0,0,0-.21-.22Z"/><path d="M80.33,339.25v8.24a9.18,9.18,0,0,1,0,2.16v.43c-.35.32-.54.28-.57-.1a3.66,3.66,0,0,1-.3-1,23.94,23.94,0,0,1-.47-4.05c-.26-5.42-.6-10.69,1.24-15.89.07-.18-.22-.26-.29-.08a26.16,26.16,0,0,0-1.5,9.2,70.55,70.55,0,0,0,.52,9.75c.09.62.2,2.7,1,2.91.5.13.6-.32.64-.7a47.29,47.29,0,0,0,0-5.19v-5.64a.15.15,0,0,0-.3,0Z"/><path d="M79.65,329.64a4.92,4.92,0,0,0-3,.64l-3.13,1.28c-.18.07-.1.36.08.29l2.91-1.19a5.18,5.18,0,0,1,3-.73c.19,0,.27-.25.08-.29Z"/><path d="M84.88,323.85a18.19,18.19,0,0,0-2.07,3.51A34.65,34.65,0,0,0,81,331.1a16.27,16.27,0,0,0-.7,8.19c0,.19.32.11.29-.08a16,16,0,0,1,.7-8,32.4,32.4,0,0,1,1.76-3.66,18.1,18.1,0,0,1,2-3.46c.13-.15-.08-.36-.21-.21Z"/><path d="M73.55,331.45a9.87,9.87,0,0,1-5.27.95l.13.23c1.43-2.14,4-2.72,6.23-3.62a24.57,24.57,0,0,0,5.73-3.6,18.29,18.29,0,0,0,2.42-2.06,20.6,20.6,0,0,0,1.79-2.46,16.06,16.06,0,0,0,2.81-6.11c0-.19-.26-.27-.29-.08a16.41,16.41,0,0,1-3,6.31A14.77,14.77,0,0,1,82,323.74a39.47,39.47,0,0,1-3.16,2.47A27.93,27.93,0,0,1,76.05,328a25.79,25.79,0,0,1-3.4,1.39,8.69,8.69,0,0,0-4.5,3.05.15.15,0,0,0,.13.22,10.24,10.24,0,0,0,5.42-1c.17-.08,0-.34-.15-.26Z"/><path d="M91.09,300c-.7,2.43-2.31,4.49-2.91,7s-.2,5.28-1.09,7.8c-.07.18.22.26.29.08.89-2.52.47-5.23,1.09-7.8s2.21-4.53,2.91-7a.15.15,0,0,0-.29-.08Z"/><path d="M111,294.69a9.08,9.08,0,0,0-3.61.84c-1.38.51-2.77,1-4.19,1.32a52.79,52.79,0,0,1-9.1,1.47,115.49,115.49,0,0,1-18.5-.44c-.11,0-.18.14-.13.23,1.17,1.86,3.45,2.13,5.46,2.32a56.86,56.86,0,0,0,10.19,0c.19,0,.19-.32,0-.3a54.5,54.5,0,0,1-6.64.21,25.08,25.08,0,0,1-6.23-.64c-.25-.07-2.47-.91-2.16-1.36s2.38.07,2.94.11c2.29.17,4.58.3,6.87.35a72.29,72.29,0,0,0,12.39-.65,47.16,47.16,0,0,0,6.32-1.38c2-.6,4.24-1.88,6.39-1.78.19,0,.19-.29,0-.3Z"/><path d="M151.32,285.28c-.42-6.18-.68-12.38-.63-18.57a.15.15,0,0,0-.3,0c0,6.19.21,12.39.63,18.57,0,.19.31.19.3,0Z"/><path d="M140.27,266.26c-.78,6.79,1.09,13.71-1,20.36-.06.18.23.26.29.08,2.08-6.68.22-13.63,1-20.44,0-.19-.28-.19-.3,0Z"/><path d="M137.58,220c3.09,4,6.22,8,10.16,11.18a35.22,35.22,0,0,1,4.82,4.14,9.44,9.44,0,0,1,1.89,8,12.77,12.77,0,0,1-3.18,6.81c-1.46,1.43-3.11.71-4.63-.18a18.93,18.93,0,0,1-2.88-2.07c-3.35-2.88-5.88-6.55-9-9.65-4.41-4.38-9.07-8.52-13.61-12.76-.14-.14-.35.08-.21.21,4.6,4.3,9.34,8.48,13.78,12.93,3.41,3.42,6.14,7.55,10,10.45,1.39,1,3.71,2.82,5.55,2.12s3.09-3.42,3.73-5.14a12.83,12.83,0,0,0,.62-7.45,10.53,10.53,0,0,0-3.81-5.34,77.78,77.78,0,0,1-6.79-5.92c-2.24-2.38-4.25-5-6.26-7.54-.12-.15-.33.06-.21.21Z"/><path d="M152.38,248.79a58.92,58.92,0,0,0-1.27,6.43c0,.19.26.27.29.08a56.64,56.64,0,0,1,1.27-6.43.15.15,0,0,0-.29-.08Z"/><path d="M140.89,255.41c.12-3.92.44-8.09-1.39-11.7-.08-.18-.34,0-.26.15,1.8,3.56,1.47,7.69,1.35,11.55,0,.19.29.19.3,0Z"/><path d="M145.08,285.08a.15.15,0,0,0,0-.3.15.15,0,0,0,0,.3Z"/><path d="M150.77,280a6,6,0,0,1-1.85,2,6.33,6.33,0,0,1-2.87.7,9.72,9.72,0,0,1-5.35-1.29.15.15,0,0,0-.16.26,10.07,10.07,0,0,0,5.86,1.3,6.09,6.09,0,0,0,2.74-.76,6.42,6.42,0,0,0,1.89-2.09c.11-.16-.15-.31-.26-.15Z"/><path d="M147.25,287.54c.81.23,1.42,1.15,1.82,1.84a11.55,11.55,0,0,1,1,2.4,29.3,29.3,0,0,0,1.73,4.92.15.15,0,0,0,.26-.15,41.7,41.7,0,0,1-1.94-5.57,9.88,9.88,0,0,0-1.13-2.25,3.45,3.45,0,0,0-1.68-1.48c-.18-.06-.26.23-.08.29Z"/><path d="M159.37,300.32a13.22,13.22,0,0,0-2-2.62l-2.61-2.94-2.55-2.87a6.52,6.52,0,0,0-2.44-1.88c-.18-.07-.26.22-.08.29a7.19,7.19,0,0,1,2.58,2.1l2.41,2.72,2.34,2.64a13.57,13.57,0,0,1,2.12,2.71c.09.17.35,0,.26-.15Z"/><path d="M161.4,298.92c-1.44-3.47-4.42-5.86-7-8.49a.15.15,0,0,0-.21.22c2.5,2.58,5.47,4.93,6.89,8.35.07.18.36.1.29-.08Z"/><path d="M165.81,293.4a9.66,9.66,0,0,1-2.74-.73,25.68,25.68,0,0,0-2.59-.77,26.1,26.1,0,0,0-5.27-.71c-.2,0-.2.29,0,.3a25.13,25.13,0,0,1,5.58.8,23.2,23.2,0,0,1,2.57.81,8.3,8.3,0,0,0,2.45.6c.2,0,.2-.29,0-.3Z"/><path d="M165,290.23a34.16,34.16,0,0,0-8.6-2.29c-1.52-.24-3-.42-4.58-.54-1.22-.1-2.75-.46-3.85.22a.15.15,0,0,0,.16.26c1.14-.71,3.07-.24,4.34-.13,1.5.14,3,.33,4.49.58a32.61,32.61,0,0,1,7.89,2.16c.17.08.32-.18.15-.26Z"/><path d="M151,285.17v2.17a.15.15,0,1,0,.3,0v-2.17a.15.15,0,0,0-.3,0Z"/><path d="M140.53,281.69a.15.15,0,0,0,0-.3.15.15,0,0,0,0,.3Z"/><path d="M140.43,281.64a.15.15,0,1,0,0-.3.15.15,0,0,0,0,.3Z"/><path d="M144.85,284.68a.18.18,0,0,0,.17.17.21.21,0,0,0,.1,0s0,0,0-.05a.14.14,0,0,0,0-.06.22.22,0,0,0,0-.11.18.18,0,0,0-.1,0h0l0,0h0l0,0h0l0,0h0l0,0h0v0h0a.21.21,0,0,0,0-.1s0,0-.05,0l-.06,0a.22.22,0,0,0-.11.05.18.18,0,0,0,0,.1Z"/><path class="cls-2" d="M145,284.37l-.24.05h0a.12.12,0,0,0-.08,0l0,0a.17.17,0,0,0,0,.14.24.24,0,0,0,.15.13h.39l-.14-.11h0v0h0v0h0v0h0l0,0h0l0,0h0l0,0-.1,0h-.31a.2.2,0,0,0-.14.13.16.16,0,0,0,.11.19,2.43,2.43,0,0,0,.38,0h0l.11,0-.11-.1h0v-.08h0l0-.07h0l0,0h0l0,0h-.23a.15.15,0,0,0,0,.3h.23a.19.19,0,0,0,.16-.06.14.14,0,0,0,0-.15.17.17,0,0,0-.12-.11,1.39,1.39,0,0,0-.41,0h0l.1.18h0v0h0l0,0h0l0,0h0l0,0h.24a.86.86,0,0,0,.17,0,.19.19,0,0,0,.14-.22.16.16,0,0,0-.15-.11h-.3l0,0h0l0,0h0l0,0h0l-.14.19.29-.06a.15.15,0,0,0,.1-.18.15.15,0,0,0-.18-.11Z"/><line class="cls-3" x1="0.25" y1="284.45" x2="289.25" y2="284.45"/></g></g></svg>