<?xml version="1.0"?>
<svg xmlns="http://www.w3.org/2000/svg" viewBox="0 0 50 50">
    <path style="line-height:normal;text-indent:0;text-align:start;text-decoration-line:none;text-decoration-style:solid;text-decoration-color:#000;text-transform:none;block-progression:tb;isolation:auto;mix-blend-mode:normal" d="M 39 2.9003906 L 33.400391 5.0996094 L 30 8.5996094 L 30 12.994141 C 29.853449 12.987765 29.038399 12.963199 28 12.939453 L 28 12 C 28 11.4 27.6 11 27 11 C 26.4 11 26 11.4 26 12 L 26 12.919922 C 25.016911 12.917765 24.01997 12.934506 23 12.974609 L 23 12 C 23 11.4 22.6 11 22 11 C 21.4 11 21 11.4 21 12 L 21 13.070312 C 19.524982 13.150479 18.195298 13.253057 17 13.373047 L 17 12 C 17 11.4 16.6 11 16 11 C 15.4 11 15 11.4 15 12 L 15 13.589844 C 13.60709 13.761701 12.50154 13.926445 11.947266 14.011719 L 11.943359 14.011719 L 11.9375 14.013672 C 11.580662 14.07217 11.336296 14.127121 11 14.185547 L 11 12.400391 C 11 11.800391 10.6 11.400391 10 11.400391 C 9.4 11.400391 9 11.800391 9 12.400391 L 9 14.554688 C 6.6681415 15.008492 5.0175711 15.400663 4 15.677734 L 4 13.599609 C 4 12.999609 3.6 12.599609 3 12.599609 C 2.4 12.599609 2 12.999609 2 13.599609 L 2 25.5 C 2.7 25 3.3 24.499609 4 24.099609 L 4 17.744141 C 4.8299609 17.5056 6.5124275 17.076845 9 16.583984 L 9 20.800781 C 9 21.000781 9.0996094 21.100781 9.0996094 21.300781 C 9.6996094 21.000781 10.3 20.799609 11 20.599609 L 11 16.21875 C 11.442967 16.140303 11.778704 16.065511 12.261719 15.986328 C 12.7851 15.90578 13.782595 15.759529 15 15.605469 L 15 19.199219 L 15 19.400391 L 15.099609 19.400391 C 15.699609 19.200391 16.3 19.000781 17 18.800781 L 17 15.382812 C 18.183762 15.261449 19.518617 15.156341 21 15.074219 L 21 17.900391 C 21.6 17.800391 22.3 17.699609 23 17.599609 L 23 14.974609 C 24.008113 14.933626 25.00915 14.917637 26 14.919922 L 26 17.199219 C 26.3 17.199219 26.600781 17.099609 26.800781 17.099609 L 28 17.099609 L 28 14.939453 C 29.017309 14.962716 29.903477 14.990053 30 14.994141 L 30 17 C 31.3 17 32.5 16.999609 34 17.099609 L 34 12 C 34 11.4 34.4 11 35 11 L 43 11 C 43.6 11 44 11.4 44 12 L 44 17.800781 C 45.3 17.900781 46.7 18.100781 48 18.300781 L 48 8.5996094 L 44.599609 5.1992188 L 39 2.9003906 z M 39 7 C 39.6 7 40 7.4 40 8 C 40 8.6 39.6 9 39 9 C 38.4 9 38 8.6 38 8 C 38 7.4 38.4 7 39 7 z M 29.400391 19.199219 C 25.200391 21.199219 21.100391 23.500781 17.400391 26.300781 C 12.000391 30.200781 7.5003906 34.699609 2.4003906 41.099609 L 2 41.5 L 2 48 L 10.900391 48 L 11 47.699219 C 11.6 46.099219 15.899219 37.700391 21.199219 31.400391 C 25.799219 25.900391 30.300391 21.900781 33.900391 19.300781 C 32.200391 19.200781 30.800391 19.199219 29.400391 19.199219 z M 37.300781 19.5 C 33.800781 21.5 28.300781 25.999609 22.800781 32.599609 C 17.800781 38.699609 13.899609 46.1 13.099609 48 L 24 48 L 24.099609 47.699219 C 25.999609 41.999219 28.5 36.599609 31.5 31.599609 C 34.6 26.599609 38.000391 22.399219 40.400391 19.699219 C 39.400391 19.599219 38.400781 19.6 37.300781 19.5 z M 24.199219 19.599609 C 20.499219 20.099609 17.599219 20.900391 15.699219 21.400391 C 12.599219 22.300391 10.199219 22.999609 7.1992188 24.599609 C 5.5992187 25.499609 3.9996094 26.499219 2.5996094 27.699219 L 2 28.199219 L 2 38.400391 C 6.8 32.600391 11.099219 28.499219 16.199219 24.699219 C 18.699219 22.799219 21.399219 21.199609 24.199219 19.599609 z M 42.900391 19.800781 C 40.600391 22.400781 36.599219 26.899609 33.199219 32.599609 C 30.299219 37.399609 27.899609 42.6 26.099609 48 L 35.900391 48 L 36 47.800781 C 37 43.300781 38.299219 38.899609 39.699219 34.599609 C 41.299219 29.699609 43.300391 24.799609 45.400391 20.099609 C 44.600391 19.999609 43.800391 19.900781 42.900391 19.800781 z M 47.400391 20.400391 C 45.200391 25.200391 43.2 30.199219 41.5 35.199219 C 40.1 39.399219 38.900391 43.7 37.900391 48 L 48 48 L 48 20.400391 L 47.400391 20.400391 z" font-weight="400" font-family="sans-serif" white-space="normal" overflow="visible"/>
</svg>
