<svg xmlns="http://www.w3.org/2000/svg" width="173.047" height="169.66" viewBox="0 0 173.047 169.66">
  <path id="Farm_2-595b40b75ba036ed117d5e8c" data-name="Farm 2-595b40b75ba036ed117d5e8c" d="M141.19,2.9l-21.065,8.273L107.333,24.34V40.872c-.551-.024-3.617-.116-7.524-.205V37.132a3.762,3.762,0,0,0-7.524,0v3.461c-3.7-.008-7.449.055-11.286.206V37.132a3.762,3.762,0,0,0-7.524,0v4.026c-5.549.3-10.551.688-15.048,1.139V37.132a3.762,3.762,0,0,0-7.524,0v5.981c-5.24.647-9.4,1.266-11.484,1.587h-.015l-.022.008c-1.342.22-2.262.427-3.527.646V38.638A3.554,3.554,0,0,0,32.1,34.876a3.554,3.554,0,0,0-3.762,3.762v8.1c-8.772,1.707-14.981,3.183-18.809,4.225V43.15a3.554,3.554,0,0,0-3.762-3.762A3.554,3.554,0,0,0,2,43.15V87.918a91.282,91.282,0,0,1,7.524-5.268V58.741c3.122-.9,9.451-2.51,18.809-4.364V70.24c0,.752.375,1.129.375,1.881a40.132,40.132,0,0,1,7.149-2.638V53c1.667-.3,2.929-.577,4.746-.875,1.969-.3,5.721-.853,10.3-1.433V64.972h.375c2.257-.752,4.516-1.5,7.149-2.256V49.858q6.68-.685,15.048-1.161V59.329c2.257-.376,4.89-.755,7.524-1.132V48.322c3.792-.154,7.558-.214,11.286-.206v8.574c1.129,0,2.26-.375,3.013-.375h4.511V48.19c3.827.087,7.161.19,7.524.205v7.546c4.89,0,9.4,0,15.048.375V37.132a3.554,3.554,0,0,1,3.762-3.762h30.1A3.554,3.554,0,0,1,160,37.132V58.954c4.89.376,10.157,1.129,15.048,1.881V24.34L162.255,11.548Zm0,15.422a3.554,3.554,0,0,1,3.762,3.762,3.762,3.762,0,1,1-7.524,0A3.554,3.554,0,0,1,141.19,18.323ZM105.077,64.215C89.277,71.738,73.854,80.4,59.935,90.93,39.62,105.6,22.692,122.525,3.506,146.6L2,148.108V172.56H35.482l.375-1.132c2.257-6.019,18.43-37.614,38.368-61.314,17.3-20.69,34.238-35.736,47.78-45.517C115.611,64.221,110.344,64.215,105.077,64.215Zm29.72,1.132C121.631,72.87,100.941,89.8,80.25,114.626c-18.809,22.948-33.485,50.787-36.495,57.935H84.762l.375-1.132a305.656,305.656,0,0,1,27.839-60.565A335.138,335.138,0,0,1,146.458,66.1C142.7,65.719,138.936,65.722,134.8,65.346Zm-49.287.375A248.164,248.164,0,0,0,53.535,72.5c-11.662,3.386-20.69,6.016-31.976,12.035a107.249,107.249,0,0,0-17.3,11.66L2,98.072v38.376C20.057,114.629,36.23,99.2,55.416,84.905,64.821,77.757,74.978,71.74,85.511,65.721Zm70.352.757c-8.652,9.781-23.7,26.7-36.495,48.148A289.33,289.33,0,0,0,92.66,172.56h36.87l.375-.749c3.762-16.928,8.649-33.485,13.916-49.661A565.655,565.655,0,0,1,165.267,67.6C162.258,67.226,159.248,66.854,155.863,66.478Zm16.928,2.256a591.409,591.409,0,0,0-22.2,55.671c-5.267,15.8-9.779,31.979-13.541,48.155h37.994V68.733Z" transform="translate(-2 -2.9)" fill="#fff"/>
</svg>
