<svg xmlns="http://www.w3.org/2000/svg" width="82" height="103.715" viewBox="0 0 82 103.715">
  <g id="growing-plant-svgrepo-com" transform="translate(-64.072)">
    <g id="Grupo_1556" data-name="Grupo 1556" transform="translate(64.072)">
      <path id="Trazado_1844" data-name="Trazado 1844" d="M145.773,100.473c-.026-.07-.051-.136-.069-.193A18.186,18.186,0,0,0,120.4,89.611q-.38-.36-.777-.7a22.51,22.51,0,0,0-12.829-5.394V76.56a15.788,15.788,0,0,1,5.561-.926c4.444-.265,9.974-.6,14.67-5.728,6.04-6.6,7.324-18.538,5.993-21.56a1.72,1.72,0,0,0-1.587-1.2,1.751,1.751,0,0,0-1.106.421c-1.218.977-3.4,1.095-5.926,1.231-4.43.239-9.943.536-14.479,5.492a20.806,20.806,0,0,0-3.125,4.574V42.748A23.38,23.38,0,0,1,111.5,39.4c4.392-2.65,9.859-5.948,11.9-13.679,2.373-9-1.649-20.541-4.471-24.2A3.106,3.106,0,0,0,116.652,0a1.689,1.689,0,0,0-1.571,1.126c-.746,1.71-2.945,3.019-5.491,4.535C105.2,8.277,99.731,11.532,97.762,19c-2.482,9.406,1.779,20.4,4.5,23.934.071.093.142.18.212.264v8.721a16.289,16.289,0,0,0-5.588-8.74c-4.956-4.052-12.442-5.491-17.347-5.491-4.753,0-5.309,1.245-5.491,1.655a1.6,1.6,0,0,0,.352,1.785c1.044,1.162,1.283,3.334,1.559,5.848.485,4.41,1.089,9.9,6.289,14.15,4.861,3.976,11.936,5.392,16.936,5.392a16.982,16.982,0,0,0,3.29-.269V83.567a22.506,22.506,0,0,0-12.3,5.339q-.4.344-.777.7a18.2,18.2,0,0,0-24.989,9.783,3.335,3.335,0,0,0,.095,3.161,3.06,3.06,0,0,0,2.712,1.161h76.465a2.353,2.353,0,0,0,2.068-.86A2.542,2.542,0,0,0,145.773,100.473ZM97.825,59.342c-.058-.057-.117-.112-.174-.17l-.086-.087-.022-.022-.005-.005c-.006-.007.034.043.015.02l-.01-.009-.042-.036-.334-.293c-.237-.186-.468-.383-.723-.566A26.4,26.4,0,0,0,93,56.09C91.739,55.424,90.4,54.766,89.167,54a16.434,16.434,0,0,1-1.747-1.237,9.361,9.361,0,0,1-1.4-1.411,6.346,6.346,0,0,1-.883-1.457A3.013,3.013,0,0,1,85,49.549c-.039-.111-.074-.218-.106-.32-.051-.212-.1-.4-.126-.576s-.04-.338-.051-.472a3.347,3.347,0,0,1,0-.336c.008-.183.012-.281.012-.281l.156.234c.051.075.107.175.183.28l.256.342.339.4c.142.13.262.284.428.419a7.538,7.538,0,0,0,1.113.838,12.9,12.9,0,0,0,1.45.787c.536.256,1.124.5,1.746.762,1.242.517,2.628,1.076,4.006,1.8a18.175,18.175,0,0,1,2.019,1.224,12.8,12.8,0,0,1,1.8,1.525,10.427,10.427,0,0,1,.756.861l.33.449.041.055.01.014c-.017-.02.028.034.025.032l0,.006.017.026.066.1c.044.068.085.139.127.208.335.551.641,1.081.915,1.577.134.25.266.487.385.718s.226.456.324.669c.2.424.362.8.49,1.113.259.626.379,1,.379,1s-.33-.216-.856-.629S100,61.346,99.15,60.593c-.42-.38-.865-.8-1.325-1.251ZM104.981,39.8c.123-.365.281-.8.47-1.3l.651-1.662c.246-.606.522-1.256.827-1.937l.115-.257.06-.129.015-.032,0-.008c0-.009-.027.047-.012.02l.006-.015.023-.061.186-.489c.11-.338.231-.675.327-1.031a28.471,28.471,0,0,0,.833-4.648c.189-1.651.327-3.372.617-5.025a19.581,19.581,0,0,1,.563-2.4,10.884,10.884,0,0,1,.884-2.1,7.362,7.362,0,0,1,1.148-1.568,3.4,3.4,0,0,1,.3-.291c.1-.09.2-.174.29-.254.2-.148.38-.28.55-.39s.337-.193.473-.265.257-.112.354-.154l.3-.117-.2.256c-.062.084-.15.181-.234.3l-.277.409-.305.523c-.088.2-.211.4-.3.633l-.143.35-.126.38c-.046.126-.076.266-.116.4a4.145,4.145,0,0,0-.1.424,14.242,14.242,0,0,0-.285,1.913c-.064.692-.094,1.436-.121,2.22-.052,1.566-.08,3.3-.276,5.08a21.684,21.684,0,0,1-.459,2.677,15.054,15.054,0,0,1-.858,2.564A12.315,12.315,0,0,1,109.58,35l-.334.542-.041.067-.01.017-.021.035-.005.007-.021.029-.083.115-.167.227c-.443.6-.874,1.162-1.281,1.675-.207.254-.4.5-.593.73s-.384.444-.565.644c-.361.4-.683.743-.956,1.021-.542.558-.883.858-.883.858s.113-.438.361-1.167Zm5.887,30.043.01-.009.041-.037.328-.3c.212-.215.433-.424.642-.657a26.419,26.419,0,0,0,2.45-3.2c.8-1.178,1.6-2.432,2.5-3.577a16.523,16.523,0,0,1,1.423-1.6,9.381,9.381,0,0,1,1.557-1.239,6.325,6.325,0,0,1,1.545-.717,2.982,2.982,0,0,1,.354-.095c.114-.027.225-.049.33-.07.216-.027.41-.051.587-.062s.339,0,.475,0,.243.027.334.037l.278.043-.25.129c-.08.043-.186.086-.3.15l-.368.217-.432.293c-.145.126-.311.229-.464.38a7.523,7.523,0,0,0-.955,1.013,12.93,12.93,0,0,0-.942,1.355c-.314.5-.623,1.062-.949,1.65-.65,1.177-1.359,2.493-2.228,3.783a18.213,18.213,0,0,1-1.439,1.872,12.793,12.793,0,0,1-1.715,1.623,10.344,10.344,0,0,1-.94.657l-.483.279-.059.034-.015.008-.034.021-.007,0-.028.013-.11.054c-.073.036-.148.069-.22.1-.585.272-1.145.518-1.669.736-.264.105-.514.211-.757.3s-.478.175-.7.248c-.443.149-.834.271-1.16.365-.651.189-1.04.266-1.04.266s.25-.3.72-.782,1.16-1.118,2-1.88c.424-.375.889-.771,1.39-1.178.062-.051.124-.1.189-.154l.1-.076.024-.019.006,0C110.9,69.822,110.841,69.857,110.867,69.84Z" transform="translate(-64.072 0)" fill="#fff"/>
    </g>
  </g>
</svg>
