<svg xmlns="http://www.w3.org/2000/svg" width="483.866" height="612.004" viewBox="0 0 483.866 612.004">
  <g id="growing-plant-svgrepo-com" transform="translate(-64.068)">
    <g id="Grupo_1556" data-name="Grupo 1556">
      <path id="Trazado_1844" data-name="Trazado 1844" d="M546.168,592.866c-.153-.411-.3-.8-.41-1.141a107.311,107.311,0,0,0-149.324-62.952q-2.241-2.125-4.582-4.158a132.823,132.823,0,0,0-75.7-31.827V451.765c8.269-3.989,19.707-4.678,32.812-5.463,26.221-1.566,58.854-3.518,86.564-33.8,35.643-38.956,43.217-109.386,35.363-127.218-2.71-6.152-7.03-7.071-9.366-7.071A10.33,10.33,0,0,0,455,280.7c-7.188,5.767-20.061,6.461-34.967,7.266-26.14,1.408-58.672,3.163-85.435,32.407a122.776,122.776,0,0,0-18.438,26.99V252.246c6.7-7,16.64-13.009,27.8-19.738,25.919-15.638,58.178-35.1,70.215-80.719C428.175,98.678,404.442,30.58,387.79,8.968,383.14,2.935,378.739,0,374.334,0c-1.915,0-6.652.648-9.268,6.646-4.4,10.093-17.376,17.816-32.4,26.761-25.919,15.433-58.178,34.639-69.8,78.68-14.644,55.5,10.5,120.382,26.564,141.228.421.548.839,1.061,1.253,1.56v51.463c-4.747-17.663-13.7-35.81-32.976-51.57-29.245-23.911-73.419-32.4-102.361-32.4-28.048,0-31.326,7.349-32.4,9.763-.736,1.652-2.008,5.982,2.077,10.531,6.159,6.856,7.569,19.671,9.2,34.51,2.861,26.02,6.423,58.4,37.11,83.495,28.685,23.459,70.434,31.816,99.938,31.816a100.2,100.2,0,0,0,19.415-1.585V493.11a132.8,132.8,0,0,0-72.551,31.507q-2.346,2.027-4.582,4.158A107.376,107.376,0,0,0,66.1,586.5c-2.883,7.461-2.688,13.91.56,18.65C69.772,609.7,75.158,612,82.664,612h451.2c5.75,0,9.855-1.708,12.2-5.073C549.527,601.951,547.342,596.041,546.168,592.866Zm-282.929-242.7c-.34-.334-.69-.661-1.024-1.006l-.507-.516-.127-.13-.032-.032c-.037-.043.2.255.088.117l-.061-.055-.246-.214-1.972-1.729c-1.4-1.1-2.764-2.26-4.268-3.339a155.75,155.75,0,0,0-20.336-12.287c-7.428-3.931-15.307-7.813-22.606-12.357a96.973,96.973,0,0,1-10.31-7.3,55.241,55.241,0,0,1-8.282-8.327,37.448,37.448,0,0,1-5.212-8.6,17.782,17.782,0,0,1-.784-2.012c-.233-.655-.437-1.287-.626-1.891-.3-1.25-.568-2.37-.744-3.4q-.2-1.6-.3-2.786a19.74,19.74,0,0,1,0-1.985c.045-1.082.07-1.659.07-1.659s.321.48.922,1.382c.3.442.629,1.035,1.079,1.65q.661.881,1.513,2.017l2,2.343c.837.767,1.545,1.673,2.526,2.474a44.48,44.48,0,0,0,6.567,4.943,76.118,76.118,0,0,0,8.557,4.643c3.163,1.512,6.633,2.964,10.3,4.494,7.327,3.05,15.505,6.349,23.636,10.6a107.244,107.244,0,0,1,11.916,7.223,75.546,75.546,0,0,1,10.636,9,61.547,61.547,0,0,1,4.463,5.082l1.95,2.652.239.326.06.08c-.1-.116.166.2.146.186l.025.038.1.153.387.612c.261.4.5.823.747,1.229,1.978,3.253,3.784,6.381,5.4,9.308.789,1.477,1.57,2.875,2.269,4.239s1.335,2.689,1.91,3.946c1.164,2.5,2.137,4.715,2.893,6.567,1.531,3.693,2.235,5.926,2.235,5.926s-1.946-1.272-5.053-3.714c-3.149-2.417-7.315-6.071-12.327-10.513C268.577,355.3,265.95,352.833,263.239,350.164Zm42.224-115.329c.723-2.156,1.657-4.742,2.775-7.672,1.143-2.92,2.436-6.215,3.844-9.809,1.45-3.576,3.082-7.414,4.882-11.43l.679-1.515.354-.76.088-.19.023-.048c.027-.051-.159.28-.073.118l.033-.089.136-.358q.545-1.425,1.1-2.885c.647-1.992,1.361-3.982,1.929-6.083a168,168,0,0,0,4.913-27.425c1.113-9.741,1.927-19.9,3.639-29.654a115.552,115.552,0,0,1,3.325-14.133,64.223,64.223,0,0,1,5.216-12.373,43.443,43.443,0,0,1,6.772-9.252,20.037,20.037,0,0,1,1.771-1.715c.586-.532,1.16-1.029,1.711-1.5,1.182-.872,2.241-1.654,3.243-2.3q1.584-.927,2.791-1.565c.8-.425,1.518-.661,2.087-.908,1.155-.451,1.773-.69,1.773-.69l-1.152,1.513c-.365.494-.884,1.07-1.383,1.789-.476.7-1.021,1.511-1.632,2.416-.544.931-1.143,1.964-1.8,3.087-.518,1.206-1.245,2.343-1.745,3.734q-.408,1-.843,2.067c-.239.726-.488,1.473-.741,2.24-.269.745-.451,1.57-.684,2.371a24.459,24.459,0,0,0-.61,2.5,84.027,84.027,0,0,0-1.68,11.287c-.377,4.085-.556,8.476-.716,13.1-.309,9.242-.475,19.461-1.63,29.975a127.946,127.946,0,0,1-2.71,15.794,88.834,88.834,0,0,1-5.063,15.13,72.677,72.677,0,0,1-3.48,6.9q-.994,1.618-1.971,3.2l-.243.393-.061.1-.122.209-.031.043-.122.172-.489.681q-.5.674-.986,1.34c-2.613,3.546-5.156,6.858-7.559,9.884-1.221,1.5-2.366,2.954-3.5,4.309-1.152,1.347-2.263,2.621-3.334,3.8-2.132,2.36-4.033,4.385-5.644,6.027-3.2,3.293-5.211,5.06-5.211,5.06S304,239.14,305.463,234.835ZM340.2,412.112l.06-.055.239-.22q.957-.875,1.937-1.77c1.249-1.268,2.553-2.5,3.791-3.874a155.89,155.89,0,0,0,14.457-18.856c4.727-6.949,9.455-14.352,14.775-21.106a97.5,97.5,0,0,1,8.395-9.442,55.354,55.354,0,0,1,9.19-7.313,37.323,37.323,0,0,1,9.119-4.231,17.6,17.6,0,0,1,2.088-.558c.675-.159,1.327-.292,1.948-.414,1.277-.16,2.419-.3,3.464-.364,1.073-.019,2-.014,2.8.011s1.434.159,1.972.219l1.641.253-1.475.764c-.472.252-1.1.509-1.759.888l-2.171,1.281-2.549,1.729c-.853.746-1.834,1.351-2.739,2.24a44.4,44.4,0,0,0-5.637,5.98,76.322,76.322,0,0,0-5.556,7.994c-1.85,2.977-3.679,6.265-5.6,9.739-3.838,6.947-8.021,14.711-13.144,22.323a107.483,107.483,0,0,1-8.493,11.048,75.488,75.488,0,0,1-10.118,9.577,61.042,61.042,0,0,1-5.544,3.875l-2.851,1.646-.35.2-.087.05c.126-.083-.222.141-.2.126l-.041.02-.163.079-.652.317c-.43.215-.872.406-1.3.607-3.451,1.607-6.759,3.056-9.846,4.341-1.556.621-3.032,1.244-4.464,1.788s-2.821,1.03-4.132,1.462c-2.617.88-4.922,1.6-6.847,2.151-3.84,1.114-6.136,1.568-6.136,1.568s1.478-1.793,4.248-4.612c2.752-2.863,6.842-6.6,11.809-11.091,2.5-2.213,5.245-4.552,8.2-6.953.368-.3.732-.614,1.114-.907l.567-.448.144-.113.034-.027C340.368,412.005,340.046,412.212,340.2,412.112Z" fill="#2a3e55"/>
    </g>
  </g>
</svg>
